<svg width="263" height="373" viewBox="0 0 263 373" fill="none" xmlns="http://www.w3.org/2000/svg">
<path d="M237.641 161.203C237.641 220.042 189.942 267.741 131.102 267.741C72.2629 267.741 24.564 220.042 24.564 161.203C24.564 102.363 72.2629 54.6641 131.102 54.6641C189.942 54.6641 237.641 102.363 237.641 161.203Z" fill="#FADD3D" stroke="#FADD3D" stroke-width="17.2381" stroke-linecap="round" stroke-linejoin="round"/>
<path d="M137.139 110.409L140.316 103.34L143.858 97.0045L148.857 91.3241L152.492 87.6887L158.854 83.1445L164.308 80.6451C166.58 80.2653 169.098 79.4241 171.287 79.3785L175.603 79.248L182.191 80.1267L189.43 82.5946L193.972 85.1604C197.091 87.1053 199.1 88.8284 201.407 90.6111L207.054 96.8087L210.526 102.1C212.576 106.265 214.258 110.431 215.525 114.597L216.566 121.998L216.017 129.79L213.157 138.714L208.971 146.309L202.77 153.287L195.307 158.387C192.096 160.36 188.98 161.267 184.53 162.506C180.488 163.096 176.24 162.912 172.033 163.09L162.717 161.533C159.204 160.545 155.938 159.268 152.947 157.67C149.327 155.615 146.243 153.202 143.404 150.627C141.452 148.744 140.281 146.749 138.896 144.785C137.138 141.913 136.302 138.6 135.031 135.404C134.289 131.92 133.96 128.436 134.088 124.952L135.161 117.779C135.658 115.525 136.294 113.098 137.139 110.409V110.409Z" fill="white" stroke="white" stroke-width="0.278832" stroke-linecap="round" stroke-linejoin="round"/>
<path d="M143.49 123.949C144.087 126.233 144.438 128.763 145.449 130.632L148.63 135.858L152.72 139.948L157.491 143.356L162.263 145.628L168.397 147.446L172.487 147.9L178.849 148.809L186.551 147.752L192.255 145.855L197.254 142.447L202.707 137.221L205.433 132.223L207.705 127.451L207.141 131.995L206.342 135.631L204.752 139.721L201.798 144.265C200.176 146.398 198.423 148.271 196.572 149.945L193.391 152.217L187.256 155.398L183.135 156.386L178.622 156.989L172.26 157.419L164.535 155.626L158.196 153.746L152.093 149.976C150.587 148.63 149.226 146.973 147.494 145.174C145.681 143.053 144.815 140.932 143.631 138.812C142.925 136.628 142.767 134.169 142.495 131.768V128.36L143.49 123.949Z" fill="#FADD3D" stroke="#FADD3D" stroke-width="0.278832" stroke-linecap="round" stroke-linejoin="round"/>
<path d="M184.303 86.3256L188.392 85.4167L189.074 85.1895C189.336 84.9971 189.269 84.4759 189.074 83.8262L185.893 82.6902L179.076 82.0085H175.214L172.033 82.6902L171.351 83.599C172.354 84.7885 173.615 84.88 174.532 85.5267L178.99 86.1534L184.303 86.3256Z" fill="#FADD3D" stroke="#FADD3D" stroke-width="0.278832" stroke-linecap="round" stroke-linejoin="round"/>
<path d="M46.371 153.127L48.3374 145.63L50.7848 138.797L54.7768 132.369L57.7621 128.183L63.2862 122.651L68.252 119.285C70.4305 118.536 72.7751 117.29 74.9263 116.884L79.1614 116.042L85.804 115.821L93.3518 117.06L98.255 118.84C101.652 120.243 103.918 121.611 106.488 122.988L113.08 128.168L117.379 132.813C120.088 136.583 122.435 140.414 124.373 144.313L126.622 151.441L127.367 159.216L126.02 168.49L123.145 176.672L118.182 184.579L111.663 190.841C108.822 193.317 105.9 194.726 101.715 196.683C97.8255 197.933 93.6058 198.452 89.4858 199.322L80.0407 199.326C76.4126 198.931 72.9808 198.211 69.767 197.129C65.8574 195.7 62.4176 193.83 59.1919 191.758C56.9558 190.223 55.4711 188.449 53.7808 186.741C51.5724 184.199 50.2013 181.069 48.4198 178.127C47.1131 174.813 46.2126 171.431 45.764 167.974L45.6379 160.722C45.7558 158.417 45.9818 155.919 46.371 153.127L46.371 153.127Z" fill="white" stroke="white" stroke-width="0.278832" stroke-linecap="round" stroke-linejoin="round"/>
<path d="M54.8709 165.433C55.8367 167.587 56.6003 170.024 57.9064 171.701L61.9068 176.329L66.6159 179.688L71.8845 182.261L76.9659 183.714L83.3163 184.494L87.4251 184.267L93.8497 184.113L101.271 181.798L106.584 178.986L110.951 174.799L115.466 168.744L117.33 163.364L118.783 158.283L118.977 162.858L118.789 166.575L117.896 170.871L115.733 175.841C114.486 178.213 113.066 180.349 111.517 182.306L108.755 185.073L103.229 189.223L99.328 190.878L94.9766 192.217L88.7728 193.693L80.8576 193.199L74.2958 192.392L67.6536 189.682C65.9458 188.603 64.3305 187.193 62.3246 185.705C60.186 183.913 58.9824 181.964 57.4645 180.068C56.4071 178.031 55.8456 175.632 55.1808 173.309L54.618 169.947L54.8709 165.433Z" fill="#FADD3D" stroke="#FADD3D" stroke-width="0.278832" stroke-linecap="round" stroke-linejoin="round"/>
<path d="M88.9104 121.586L92.7937 120.014L93.4286 119.678C93.6553 119.445 93.5032 118.942 93.2034 118.333L89.8784 117.738L83.0432 118.191L79.2337 118.829L76.2088 120.027L75.6865 121.036C76.872 122.043 78.1312 121.925 79.1422 122.412L83.6427 122.293L88.9104 121.586Z" fill="#FADD3D" stroke="#FADD3D" stroke-width="0.278832" stroke-linecap="round" stroke-linejoin="round"/>
<path d="M194.073 188.575L196.573 193.021L198.037 200.515L197.434 207.213L194.157 215.471L191.87 219.635L190.069 222.721C189.044 224.785 188.476 224.923 187.23 226.723L183.896 230.296L179.88 233.788L176.642 236.388L173.019 238.632C169.615 240.018 170.258 240.285 167.46 241.109L162.415 242.399L155.813 243.157C151.237 242.375 150.093 242.273 145.975 240.857L138.67 236.173L134.638 232.417L129.925 226.196L127.207 220.379L124.841 212.662L124.772 204.238C125.056 200.48 125.202 197.792 126.811 193.46C128.703 189.839 129.979 186.507 132.302 182.995L138.799 174.998C141.659 172.732 144.609 171.744 147.657 170.258C151.444 168.531 154.298 169.038 158.049 168.249C160.719 167.772 163.476 168.675 165.879 168.704C169.237 168.964 173.092 171.82 176.426 172.665C179.683 174.107 180.426 175.201 183.173 177.349L188.127 181.061C189.661 182.785 192.391 186.313 194.073 188.574L194.073 188.575Z" fill="white" stroke="white" stroke-width="0.278832" stroke-linecap="round" stroke-linejoin="round"/>
<path d="M156.503 177.357C156.503 177.357 156.503 177.357 154.767 178.662L153.004 180.202L151.07 182.026L149.427 183.543L147.376 185.516L145.593 187.741L143.736 190.018L139.899 195.967L137.178 202.603L135.829 209.747L135.785 215.856C135.927 218.218 136.576 220.724 137.277 223.246L139.362 228.569L141.895 233.177L138.332 229.933L135.855 227.154L133.292 223.467L130.917 218.349C130.14 215.784 129.28 213.258 129.01 210.776L128.892 206.937L129.563 199.962L130.9 194.647L132.988 190.358L136.37 184.742C137.697 182.707 139.464 180.848 141.723 179.186C142.981 177.382 145.559 176.633 147.662 175.504C149.278 174.665 151.467 174.17 154.015 173.889C155.989 173.459 153.793 173.958 156.266 173.609C159.047 173.384 158.755 173.297 161.167 173.581C163.591 174.276 159.478 174.124 159.007 175.463L157.641 176.622L156.503 177.357Z" fill="#FADD3D" stroke="#FADD3D" stroke-width="0.278832" stroke-linecap="round" stroke-linejoin="round"/>
<path d="M179.096 227.26L177.434 231.106L177.218 231.792C177.22 232.117 177.681 232.368 178.322 232.591C179.321 232.681 180.319 231.765 181.318 231.17C185.231 226.496 184.121 228.752 186.216 225.419L187.922 222.43L189.235 219.453L188.899 218.368C187.347 217.638 186.533 219.268 185.472 219.815L182.35 223.058L179.096 227.26Z" fill="#FADD3D" stroke="#FADD3D" stroke-width="0.278832" stroke-linecap="round" stroke-linejoin="round"/>
</svg>
