<svg width="263" height="373" viewBox="0 0 263 373" fill="none" xmlns="http://www.w3.org/2000/svg">
<path d="M237.641 162.734C237.641 221.574 189.942 269.272 131.102 269.272C72.2629 269.272 24.564 221.574 24.564 162.734C24.564 103.894 72.2629 56.1956 131.102 56.1956C189.942 56.1956 237.641 103.894 237.641 162.734Z" fill="#54BF36" stroke="#54BF36" stroke-width="17.2381" stroke-linecap="round" stroke-linejoin="round"/>
<path d="M173.996 101.381L173.783 99.5748L173.199 98.4059L172.296 97.1839L171.445 96.5463L170.489 96.0151L168.842 95.6963L164.857 95.6433L162.36 95.3776L161.616 95.0588L162.519 95.9621L163.104 96.9184L163.795 98.2998L164.007 99.7344L163.951 101.222L163.473 102.285L163.314 103.135L163.633 104.144L164.802 104.888L166.342 105.579L168.202 105.951L171.496 105.472L172.878 104.569L173.621 103.666L173.887 102.657L173.996 101.381Z" fill="white" stroke="white" stroke-width="0.278832" stroke-linecap="round" stroke-linejoin="round"/>
<path d="M109.601 101.7L111.248 101.063L111.939 100.159L112.364 99.3092L112.47 98.1935L112.258 97.0246L111.78 95.59L111.142 93.3054L110.823 92.2959L110.767 90.6489L111.192 89.48L112.042 88.9486L113.158 88.4704L114.38 88.2048L115.762 88.3111L117.037 88.8424L118.259 89.6925L119.481 90.3301L121.075 90.9676L122.722 90.8614L123.891 90.3832L125.113 89.4268L126.653 87.5672L127.663 86.2389L128.885 85.0701L130.107 84.3262L131.754 84.0605L133.295 84.2731L136.164 85.3357L137.864 85.8139L139.458 86.0264H140.574L142.274 85.3888L144.134 84.7513L146.578 84.2731L148.278 84.3793L150.031 85.07L151.838 86.0264L153.166 87.4078L154.813 89.5862L156.035 91.4989L157.098 93.6241L156.035 93.4116L152.794 93.3053L150.988 93.4116L149.34 93.6241L147.534 93.996L145.356 94.793L143.655 95.4837L142.965 96.2807L142.593 97.4495V98.459L142.912 99.6279L143.655 101.966L140.893 100.85L138.555 99.7873L135.792 98.459L132.817 97.2901L130.904 96.6526L128.248 96.2275L126.335 96.3338L124.635 97.237L123.306 98.5653L122.775 100.425L122.35 103.453L121.818 105.897L120.915 108.076L119.746 108.554L118.152 108.341L116.24 107.438L113.636 105.632L110.873 103.028L109.601 101.7Z" fill="white" stroke="white" stroke-width="0.278832" stroke-linecap="round" stroke-linejoin="round"/>
<path d="M99.9782 114.318V111.046L100.393 108.458L102.48 105.273L103.442 103.348C103.609 102.948 103.66 102.356 103.606 101.587C103.112 100.744 102.457 100.545 101.821 100.268L98.9882 99.3894C97.8796 99.4695 96.6485 99.2866 95.8794 99.7743C94.1303 100.549 94.4166 100.917 94.0122 101.423L92.665 104.695L91.7026 106.235L90.3554 107.005L88.5957 107.472C88.4869 107.777 88.2115 108.048 88.6532 108.215L90.3852 110.139C91.2475 111.073 91.9537 112.085 92.0848 113.384L92.1182 115.117C91.9838 116.226 91.4192 117.076 90.9349 117.975L89.9726 118.937L92.2821 118.359L95.0336 117.783L97.4783 116.82L99.2105 115.858L99.9782 114.318Z" fill="white" stroke="white" stroke-width="0.278832" stroke-linecap="round" stroke-linejoin="round"/>
<path d="M106.75 103.341L105.196 106.014L104.209 108.887L103.849 111.401L103.49 113.556L103.221 115.441L102.413 116.608L101.335 117.865L100.168 118.494L98.0136 119.93L95.9486 120.469L92.9857 121.277L89.8434 121.906L87.6885 122.444L86.1621 122.983L89.125 124.24L91.9981 125.228L95.2303 126.215L99.8991 127.742L104.029 128.55L105.645 129.447L107.89 132.859L109.147 133.847L110.494 134.475H112.648L113.815 135.104L114.893 135.912L115.432 137.438L114.893 139.144V140.491L115.162 141.209L116.15 141.838L116.599 149.469L116.688 169.042L115.701 176.135L114.623 189.961L113.815 198.221L113.367 207.11V212.407L113.726 220.128L114.803 224.887L116.509 228.388L118.035 230.274L118.664 230.543L120.459 234.673L122.524 237.367L125.038 239.252L127.014 240.33L127.103 240.599L129.617 240.958L133.208 241.407L136.71 241.227L138.147 240.24L139.942 239.162L141.558 236.918L143.085 235.032L143.983 233.506C145.239 232.683 146.064 232.637 147.981 230.626L149.998 227.132L151.434 223.45L152.422 218.692L152.781 214.023L152.422 206.122L151.883 198.67L151.434 192.655L151.165 186.819L150.986 178.649L151.345 163.475L150.806 150.546V143.184L150.626 137.528L151.227 137.407L151.891 138.015L153.107 138.402L153.936 138.567L154.267 138.236L155.76 136.301L157.583 134.367L158.578 133.096L158.799 132.322V131.548L158.965 130.996L159.904 129.393L161.894 127.68L163.994 126.243L166.426 125.027L169.3 123.866L171.676 122.484L173.445 121.268L174.716 120.274L175.435 119.5L176.043 118.726H175.048L173.113 118.395L171.511 117.897L170.516 117.234L170.074 116.515L169.963 115.3L170.792 113.531L172.561 111.099L174.053 109.275L174.661 108.28L175.103 107.451L175.324 106.899L174.44 107.341L173.003 107.783L171.234 108.225L169.521 108.336L168.084 108.446L166.094 108.336L164.713 108.004C164.713 108.004 163.718 107.12 163.718 107.562C163.718 108.004 162.17 106.622 162.17 106.622L161.065 105.462L160.567 103.97V102.533L161.01 100.211L161.341 98.7743L160.899 97.7795L159.96 96.8952L157.749 96.1767L155.649 95.9004H152.996L150.841 96.0109L149.072 96.3425L147.58 97.0057L146.695 98.4427L146.64 100.653L146.916 102.477L146.529 103.969L145.479 104.356L143.71 104.191L141.058 103.362L138.46 102.477L135.365 101.261L132.546 100.211L130.612 99.7691L129.23 99.6033L128.125 99.6585L126.467 100.101L125.417 101.261L125.085 103.14L124.643 105.517L124.311 107.285L123.703 108.722L122.819 109.938L121.603 110.878L120.221 111.209H118.342L116.518 110.712L114.252 109.386L111.765 107.728L109.941 106.07L108.615 104.854L107.233 103.748L106.75 103.341Z" fill="white" stroke="white" stroke-width="0.278832" stroke-linecap="round" stroke-linejoin="round"/>
<path d="M143.766 126.408L143.324 120.937L143.103 116.405L142.882 115.244L142.274 116.792L141.777 118.505L141.39 120.163L141.113 121.987L141.058 123.479L141.223 125.579L141.389 129.559L141.278 133.483L141.113 139.286L141.555 139.231L141.499 141.994L141.721 146.194L141.886 148.737L142.218 153.379L143.047 167.03L142.826 172.944L142.661 177.642L142.771 181.676L142.715 183.887L142.826 193.78L143.434 202.512L143.71 207.431L143.987 210.084L144.982 224.896L145.147 226.609L144.926 228.709L144.65 229.87L144.594 230.92L145.81 229.981L146.805 228.93L147.302 228.157L147.8 227.272L148.408 225.283L148.96 221.967L149.458 213.677V207.873L149.181 200.799L148.794 193.393L148.517 188.419L148.075 182.284L147.854 180.184V174.823L147.744 170.512L147.578 165.759L147.191 144.536V138.015L146.971 136.025L146.694 133.648L146.473 131.161V129.338L146.252 128.011L146.031 127.348L145.755 126.961L145.368 126.851L144.76 126.685H144.428L143.766 126.408Z" fill="#54BF36" stroke="#54BF36" stroke-width="0.278832" stroke-linecap="round" stroke-linejoin="round"/>
<path d="M117.569 118.339L120.001 119.611L122.157 120.495L123.483 120.882L125.03 120.992L125.97 120.495L126.08 119.445L125.638 118.229L125.804 117.897L127.185 119.666L129.12 122.319L132.491 127.182L134.315 130.056L136.857 133.704L137.742 136.08L138.46 138.346L138.737 140.281L139.179 140.447V142.768L139.345 145.034L139.565 151.003L139.178 162.664L138.736 177.863L139.344 186.595L140.394 204.115L140.892 212.737L141.112 223.293L140.67 228.82L139.289 232.91L138.239 234.568L136.636 235.894L134.37 237L132.656 237.552H130.28L128.401 236.723L125.803 234.679L123.814 231.584L122.266 226.996L121.879 221.967L121.989 217.932L122.1 211.908L122.376 208.868L122.818 200.412L124.034 190.74L125.36 179.963L126.079 172.005L126.245 167.583L126.3 165.649V163.825L126.19 161.227L126.742 165.151L126.963 168.91L127.461 173.663L127.848 177.366L128.732 187.093L129.395 194.941L130.003 202.734L130.28 205.829V210.803V213.787L130.224 218.485L129.948 223.293L130.445 224.067L130.998 224.399L131.716 224.343L132.324 223.957L132.268 223.57L132.655 215.501L132.545 210.692L132.601 208.537L132.158 200.247L131.385 190.464L130.556 181.621L128.898 165.041L128.179 155.977L127.461 149.455L127.35 148.958L127.129 148.903L127.793 141.497L128.29 141.663L128.124 141.11L127.848 140.281L127.904 138.954L127.738 136.357V134.92L127.517 132.709L126.743 130.056L125.804 127.79L124.256 125.193L122.267 122.54L120.388 120.771L119.116 119.611L117.569 118.339Z" fill="#54BF36" stroke="#54BF36" stroke-width="0.278832" stroke-linecap="round" stroke-linejoin="round"/>
<path d="M118.138 225.731L117.946 219.195L118.33 209.392L121.022 191.706L123.521 175.751L124.097 169.792V165.371V163.833L124.482 140.957L123.328 136.536L122.367 134.998L121.161 133.145L119.527 131.222L117.028 129.3L117.893 131.703L118.854 133.337L119.815 135.163V137.086L119.911 138.816L119.719 140.642L119.334 141.988L119.623 142.95L119.911 145.737L120.007 149.39L120.295 155.446L120.391 160.637L120.103 167.27V170.153L118.853 182.65L117.988 188.417L117.507 194.569L117.123 197.646L116.835 205.624L116.643 212.161L116.451 216.198L116.643 220.427L116.931 222.927L117.508 225.042L118.138 225.731Z" fill="#54BF36" stroke="#54BF36" stroke-width="0.278832" stroke-linecap="round" stroke-linejoin="round"/>
</svg>
