<svg width="263" height="373" viewBox="0 0 263 373" fill="none" xmlns="http://www.w3.org/2000/svg">
<path d="M237.641 158.331C237.641 217.17 189.942 264.869 131.102 264.869C72.2629 264.869 24.564 217.17 24.564 158.331C24.564 99.4914 72.2629 51.7925 131.102 51.7925C189.942 51.7925 237.641 99.4914 237.641 158.331Z" fill="#C27344" stroke="#C27344" stroke-width="17.2381" stroke-linecap="round" stroke-linejoin="round"/>
<path d="M167.462 160.227L169.988 154.734L173.197 150.012L176.273 147.024L179.525 144.475L183.479 142.454L188.752 140.872L193.937 139.818L197.804 139.29L201.495 139.027L205.801 139.466L208.437 140.257L210.107 141.399L211.601 142.806L212.568 144.212L213.095 146.497L213.183 148.781L212.963 149.704L185.786 165.149L213.776 151.176L214.545 151.989L215.468 152.846L216.588 154.318L217.379 155.812L217.818 156.976L218.126 158.36L218.257 159.788L217.95 161.788L217.555 163.172L216.874 164.776L216.017 166.292L214.94 167.895L213.974 169.148L212.282 170.993L211.117 172.048L208.723 174.113L206.548 175.761L202.945 178.068L199.759 179.869L197.013 181.253L193.739 182.681L189.982 183.978L187.104 184.637L185.676 184.769L184.292 184.856L182.512 184.725L181.15 184.527L179.7 184.197L178.448 183.758L177.393 183.319L175.042 181.956L173.658 180.924L171.989 179.386L170.89 178.112L169.55 176.442L168.144 174.157L167.353 172.641L166.935 171.565L166.606 170.312L166.452 169.192L166.298 167.478L166.364 165.742L166.562 163.699L167.067 161.611L167.462 160.227Z" fill="white" stroke="white" stroke-width="0.278832" stroke-linecap="round" stroke-linejoin="round"/>
<path d="M146.466 234.255L140.922 230.555L137.756 225.648L136.084 221.582L134.703 217.435L133.55 213.147L133.1 207.66L132.628 202.369L132.917 198.216L133.602 194.115L135.277 190.692L136.599 188.278L138.064 186.883L139.75 185.714L141.327 185.061L143.671 185.022L145.925 185.411L146.781 185.818L155.795 220.32L148.39 185.33L149.258 184.137L150.463 183.326L152.136 182.275L153.587 181.986L154.992 181.799L156.323 181.787L158.008 182.217L159.726 183.195L161.346 184.131L162.337 185.131L163.641 186.285L164.986 187.672L166.009 188.878L167.462 190.917L168.251 192.275L169.773 195.047L170.932 197.518L172.873 201.348L174.234 205.362L174.755 208.249L175.383 211.573L175.52 215.431L175.565 218.383L175.396 219.807L175.194 221.179L174.695 222.892L174.218 224.184L173.594 225.533L172.903 226.667L172.254 227.607L170.432 229.622L169.483 231.023L168.154 232.336L166.766 233.493L164.941 234.805L162.762 235.618L160.766 235.901L159.103 236.086L157.81 236.235L156.333 236.239L154.712 236.207L153.115 236.043L151.419 235.772L148.872 235.018L146.466 234.255Z" fill="white" stroke="white" stroke-width="0.278832" stroke-linecap="round" stroke-linejoin="round"/>
<path d="M96.2573 135.401L100.522 124.739L105.44 115.496L110.794 106.266L115.569 99.1839L122.345 92.4084L127.467 88.9118L135.128 86.5473L144.082 85.3722L153.615 86.2722L161.697 90.7118L168.255 95.8479L171.884 101.987L173.016 108.62L172.769 116.442L171.419 123.349L168.14 129.907L164.905 133.593L158.768 138.076L153.397 142.197L145.228 148.015L137.221 154.284L133.113 160.016L127.541 169.985L122.927 181.2L117.659 189.325L111.537 194.736L104.847 199.451L93.7178 203.194L82.5885 204.98L72.3593 205.516L64.0016 204.587L58.6762 203.019L54.5259 200.29L50.7973 195.283L48.897 181.589L50.8115 173.549L54.9903 164.045L59.6763 157.298L67.0911 149.462L76.8417 142.962L83.3886 139.608L89.7603 137.329L96.2573 135.401Z" stroke="white" stroke-width="10.5956" stroke-linecap="round" stroke-linejoin="round"/>
<path d="M118.827 101.15L128.192 102.875L139.036 106.325L148.648 111.255L158.753 118.402L167.871 125.795" stroke="white" stroke-width="2.23065" stroke-linecap="round" stroke-linejoin="round"/>
<path d="M107.244 117.909L120.306 118.895L130.657 122.345L141.008 130.231L150.62 140.583" stroke="white" stroke-width="2.23065"/>
<path d="M97.8784 139.35H103.547L107.983 140.583L116.363 144.772L122.031 148.469L125.481 151.92L131.396 158.327" stroke="white" stroke-width="2.23065"/>
<path d="M68.0571 151.92L76.1901 153.152L86.2948 155.863L95.4136 159.56L103.3 165.228L108.722 170.897L111.433 175.333L116.855 185.437" stroke="white" stroke-width="2.23065"/>
<path d="M54.7488 167.939L69.0432 171.143L76.4369 174.101L85.3092 178.783L92.7028 185.437L96.6461 189.874L103.547 198.5" stroke="white" stroke-width="2.23065"/>
<path d="M129.178 92.7703L128.685 102.382L124.988 110.761L119.32 122.345L107.49 140.582L89.9917 157.588L80.6264 166.214L71.754 172.622L62.6351 180.015L58.9384 183.219L51.5447 188.395L52.777 187.409" stroke="white" stroke-width="2.23065"/>
<path d="M58.1992 199.732L62.3889 197.514L81.1194 182.973L91.4705 173.854L99.85 165.228L110.941 152.412L118.581 141.815L126.467 131.464L132.875 119.88L135.586 113.966L139.283 105.832L142.24 95.2349L143.472 87.5948" stroke="white" stroke-width="2.23065"/>
<path d="M155.549 89.0736L151.852 99.9176L147.662 113.226L142.98 126.288L135.339 138.118L128.685 146.744L124.495 151.92L117.595 162.517L112.666 168.678L108.969 172.868L102.068 180.508L95.1673 185.684L73.9722 203.182" stroke="white" stroke-width="2.23065"/>
<path d="M162.696 94.249L160.478 105.586L159.492 112.24L157.52 119.387L153.577 130.231L150.127 139.843" stroke="white" stroke-width="2.23065"/>
</svg>
