<svg width="263" height="373" viewBox="0 0 263 373" fill="none" xmlns="http://www.w3.org/2000/svg">
<path d="M237.641 140.423C237.641 199.262 189.942 246.961 131.102 246.961C72.2629 246.961 24.564 199.262 24.564 140.423C24.564 81.5832 72.2629 33.8843 131.102 33.8843C189.942 33.8843 237.641 81.5832 237.641 140.423Z" fill="#DA4752" stroke="#DA4752" stroke-width="17.2381" stroke-linecap="round" stroke-linejoin="round"/>
<path d="M131.344 67.6366L127.301 79.8192C124.526 90.0077 122.667 101.113 120.682 112.091C120.177 116.054 119.946 119.926 118.673 124.145L116.999 133.185L116.612 139.753L116.046 149.437L115.995 163.32L117.386 176.79L119.009 187.427L122.357 200.485L126.04 209.191L127.046 211.587L129.054 213.209L127.38 203.833L123.027 190.775L119.679 177.717L118.262 168.523L117.747 152.296C117.666 146.519 118.144 142.136 118.597 137.693L119.833 125.845L123.361 109.078L127.045 96.3545L129.981 87.778C131.878 84.2496 133.433 80.7698 135.055 77.7851C133.679 80.9378 132.5 84.6809 131.397 88.6536C130.629 91.6803 129.886 94.7318 129.388 98.0287L126.89 112.735L125.319 125.767L124.211 134.859L122.692 143.565L122.074 151.936L122.383 161.62L122.692 170.016L123.362 178.722L124.701 188.431L127.045 198.141L129.131 203.679L130.11 206.306L132.531 202.237L136.085 201.49L140.258 203.936L146.465 209.011L152.157 211.534H155.84L153.496 207.516C153.101 204.494 152.315 201.472 152.671 198.45C153.102 192.047 153.605 185.717 154.577 179.856L155.84 191.78L156.509 201.155L157.849 211.869C160.566 211.015 163.417 210.295 165.884 209.191L172.633 205.919C174.418 201.776 176.796 197.87 177.32 193.222L178.608 188.766C179.383 190.705 179.66 192.976 179.612 195.463L179.818 199.404L179.612 202.159L184.97 197.472C187.087 195.04 188.237 192.995 188.987 191.11C190.531 188.024 191.157 185.167 191.615 182.353C192.496 178.649 192.974 174.544 193.031 170.016L192.67 152.605C191.967 146.819 191.124 141.032 189.606 135.246C188.441 130.388 186.446 125.253 184.48 120.127C182.177 116.178 179.987 112.229 176.625 108.279C173.309 103.907 169.427 99.6287 164.468 95.5301L158.183 90.9973L152.929 87.7261L146.464 84.3008L139.794 79.6651L134.746 74.5909L132.737 71.2426L131.344 67.6366Z" fill="#FEFEFE" stroke="#FEFEFE" stroke-width="0.278832"/>
<path d="M142.635 107.189V104.306L142.12 101.011L141.296 98.4371L140.061 94.0096L138.104 89.6852L137.384 87.317L136.56 85.6696L136.354 89.0674V91.7444L136.663 94.7304L137.59 98.3341L138.838 101.732L140.678 104.512L142.635 107.189Z" fill="#DA4752" stroke="#DA4752" stroke-width="0.278832"/>
<path d="M156.841 93.8556L159.025 96.1854L161.573 98.8792L164.777 102.156L166.743 104.704L168.563 106.961L170.092 109.145L171.912 111.766L173.077 114.169L174.169 116.498L175.188 118.901L175.698 120.721L176.353 122.905L176.79 125.162L174.533 121.813L169.873 115.843L167.034 111.984L164.413 108.344L162.01 104.704L159.607 100.627L157.642 96.7678L156.841 93.8556Z" fill="#DA4752" stroke="#DA4752" stroke-width="0.278832"/>
<path d="M162.01 124.871L163.393 128.511L165.286 133.753L166.597 138.049L168.271 142.053L169.728 146.131L171.257 149.625L172.349 151.737L171.766 146.422L171.038 139.287L170.383 135.21L169.072 131.642L167.689 128.584L166.306 127.274L163.539 125.308L162.738 125.017L162.01 124.871Z" fill="#DA4752" stroke="#DA4752" stroke-width="0.278832"/>
<path d="M147.23 124.871L147.157 129.458V134.263L147.521 138.923L148.249 145.257L148.759 148.533L149.56 152.101L150.142 145.767L150.871 140.743L151.016 137.248L150.944 133.899L150.579 130.841L149.997 128.439L148.905 126.546L147.23 124.871Z" fill="#DA4752" stroke="#DA4752" stroke-width="0.278832"/>
<path d="M138.494 159.236L137.547 156.469L136.819 152.465L136.164 148.533L135.581 144.747L135.217 142.563L134.635 139.36L133.979 136.593L133.251 138.122L132.451 140.816L132.014 143.364L131.941 145.476L132.014 148.242L132.669 151.591L133.834 154.431L135.217 156.542L136.455 158.071L138.494 159.236Z" fill="#DA4752" stroke="#DA4752" stroke-width="0.278832"/>
<path d="M160.19 171.54L160.845 169.429L161.282 167.609L161.573 165.279L161.791 163.313L161.864 161.056L161.718 159.163L161.354 156.615L160.918 153.557L160.117 149.989L159.316 148.096L158.588 150.353L158.151 153.12L157.787 156.688V161.42L158.224 164.478L158.879 167.463L159.461 169.502L160.19 171.54Z" fill="#DA4752" stroke="#DA4752" stroke-width="0.278832"/>
<path d="M184.871 172.923L185.745 168.264L186.473 159.818L186.254 154.795L185.599 149.625L183.997 145.039L182.25 142.199L180.212 140.452L178.391 139.724L179.556 142.053L180.503 144.674L181.231 147.587L181.813 151.081L182.541 156.615L182.906 160.765L183.27 164.259L183.706 167.172L183.997 168.701L184.871 172.923Z" fill="#DA4752" stroke="#DA4752" stroke-width="0.278832"/>
<path d="M166.815 197.387L168.199 195.712L169.509 193.746L170.31 190.106L170.456 186.32L170.091 182.898L169.363 178.384L168.854 175.763L168.489 174.307L167.616 176.637L167.106 179.913L166.669 183.845L166.596 186.83V189.596V194.037V197.023V197.751L166.815 197.387Z" fill="#DA4752" stroke="#DA4752" stroke-width="0.278832"/>
<path d="M133.688 168.555L134.198 171.759L134.853 175.035L136.164 178.384L137.911 182.752L139.44 185.737L141.042 188.795L142.28 191.125L143.153 193.018L143.736 194.401L144.973 197.459L141.77 194.037L137.838 189.742L134.999 185.301L132.815 181.515L131.723 176.345L131.796 174.161L132.16 171.831L132.961 169.793L133.688 168.555Z" fill="#DA4752" stroke="#DA4752" stroke-width="0.278832"/>
<path d="M124.333 212.611L118.904 205.043L115.805 198.077C113.277 192.614 112.269 186.645 111.24 180.683C109.158 169.335 108.551 157.988 107.973 146.64L109.102 130.424C109.646 124.354 110.832 118.412 112.657 112.598L117.414 97.6549L123.709 81.0301L125.078 76.2974L120.393 79.6365L112.657 84.4895L103.552 89.8229C99.8733 91.6544 96.9123 94.0244 94.2547 96.6219C90.1306 100.73 87.308 104.838 84.4289 108.946C81.5492 114.414 78.8972 120.626 76.5248 127.109C74.9992 131.954 73.6941 136.798 72.6809 141.643C71.5886 145.511 70.9033 151.414 70.0382 156.418L69.1733 170.713C69.4572 173.62 68.8348 176.527 70.2545 179.434C70.4001 181.716 72.4719 183.998 73.7619 186.281L79.8642 192.863L82.5069 195.29L79.5518 190.052L78.879 185.512L79.3715 182.786C82.0885 186.325 83.6629 189.75 85.7261 193.224L90.1706 199.734L95.7924 205.356C99.0474 207.133 102.396 209.285 105.162 209.104L109.222 209.68C108.3 206.285 106.641 202.312 107.877 198.917L113.282 207.23L115.756 204.923C117.231 206.541 118.573 209.216 121.21 210.833C121.48 211.297 122.525 211.891 124.333 212.611H124.333Z" fill="#FEFEFE" stroke="#FEFEFE" stroke-width="0.278832"/>
<path d="M101.749 102.834L103.589 100.158L105.511 96.7943L108.491 92.277C109.375 91.2805 110.125 90.0824 111.278 89.4897L108.491 89.8742C107.436 90.0902 106.486 90.5277 105.664 91.0419C104.622 91.7099 104.263 92.3779 103.781 93.0459L102.339 95.7371L100.898 98.7166L98.7832 101.119L96.4765 103.522L95.7076 105.637L95.6118 107.367L97.2456 106.694L99.264 105.348L100.513 104.003L101.749 102.834Z" fill="#DA4752" stroke="#DA4752" stroke-width="0.278832"/>
<path d="M101.364 145.732L101.763 135.624L102.82 125.436L103.397 120.534L104.454 114.671L105.635 109.978C104.109 110.818 103.409 112.129 102.34 113.23L100.034 118.695L99.0716 124.283L98.7833 129.569L99.2641 135.047L99.8407 139.468L101.271 145.351L101.364 145.732Z" fill="#DA4752" stroke="#DA4752" stroke-width="0.278832"/>
<path d="M88.1282 141.393C88.6646 139.858 89.083 138.38 89.1854 136.696C89.3772 134.707 89.6856 132.796 89.4609 130.53V125.917L88.5958 120.534L87.5386 117.939L85.7124 124.379L85.6166 129.665C85.4007 131.203 85.7175 132.741 86.0008 134.279L86.4814 136.777L87.6338 140.101L88.1282 141.393Z" fill="#DA4752" stroke="#DA4752" stroke-width="0.278832"/>
<path d="M78.0762 138.964L77.9268 142.736L77.8308 154.654L78.3115 162.151L78.9843 168.303L79.6846 175.182L77.2543 170.129C76.1382 167.373 75.3355 164.618 74.6592 161.863L73.9865 155.423V151.483C74.1398 149.437 74.3578 147.401 74.9475 145.428C75.3323 143.954 75.9246 142.48 76.6776 141.006C76.9503 140.229 77.5169 139.598 78.0762 138.964V138.964Z" fill="#DA4752" stroke="#DA4752" stroke-width="0.278832"/>
<path d="M90.7098 156.939C91.396 158.933 91.712 160.556 92.0402 162.192L92.8244 167.726L93.8817 174.358L94.6108 176.871L96.1886 180.413L96.7654 182.143L97.246 184.257L97.1634 187.098L96.1072 186.439L95.2708 185.383L94.6797 183.541C94.6084 182.588 93.5917 181.529 92.921 180.509L90.422 177.625L89.2687 175.126L88.7881 170.897V167.822L90.2297 158.691L90.4227 156.427L90.7098 156.939Z" fill="#DA4752" stroke="#DA4752" stroke-width="0.278832"/>
</svg>
