<svg width="263" height="373" viewBox="0 0 263 373" fill="none" xmlns="http://www.w3.org/2000/svg">
<path d="M237.641 141.986C237.641 200.825 189.942 248.524 131.102 248.524C72.2629 248.524 24.564 200.825 24.564 141.986C24.564 83.1461 72.2629 35.4473 131.102 35.4473C189.942 35.4473 237.641 83.1461 237.641 141.986Z" fill="#F47039" stroke="#F47039" stroke-width="17.2381" stroke-linecap="round" stroke-linejoin="round"/>
<path d="M93.0337 250.954L100.902 238.196L109.017 226.501L107.26 225.447L105.854 223.865L104.448 219.823L104.696 214.198L107.963 204.18L112.005 196.446L115.872 190.822L116.575 195.567L116.927 204.707L116.667 211.562L116.048 218.065L120.618 213.144L126.242 207.695L129.23 204.707L127.648 202.246L127.38 199.28L128 196.095L129.013 193.696L131.339 188.713L135.557 182.913L138.194 179.925L141.073 176.757L144.553 168.617L147.784 159.233L146.541 164.391L144.615 170.792L142.378 177.13L141.197 185.892L140.016 192.23L138.649 197.139L149.4 189.682L148.219 188.129L147.784 186.016L148.157 182.723L150.207 178.373L155.987 171.599L161.206 166.939L162.946 165.634L167.048 158.674L170.403 151.839L167.856 158.053L165.432 162.9L163.692 166.255L162.014 173.588L159.901 179.678L157.54 185.022L168.85 179.74L167.669 177.814L167.483 175.452L168.912 171.91L170.776 169.238L174.691 165.261L178.482 162.465L181.899 160.29L182.645 159.731L185.255 156.251L187.989 152.46L189.605 150.099L190.972 147.737L188.735 152.025L185.939 156.499L183.453 160.228L181.278 165.945L179.041 171.102L176.68 175.141L174.94 177.503L181.176 175.485L189.108 173.215L190 173.036L190.523 172.966L190.599 172.842L189.941 171.464C189.942 171.27 189.891 171.045 189.885 170.869C189.866 170.339 189.895 169.891 190.11 169.18C190.64 167.803 191.309 166.763 192.533 165.682C193.826 164.548 195.088 163.322 196.492 162.52L199.438 160.648L200.271 160.151L202.779 156.996L204.146 155.194L205.202 153.641L203.089 156.996L200.417 160.725L199.672 161.719L197.968 165.137L196.656 167.721L194.887 170.543L192.93 172.55L196.396 171.834L200.67 171.128L204.636 170.635L210.466 169.984L205.122 170.792C201.135 171.191 197.472 172.184 193.83 173.215L197.807 174.271L201.225 175.763L203.027 176.509L206.569 177.068L211.541 178.249L205.948 177.192L203.152 177.006L199.672 177.689L194.452 178.249L191.034 177.876L189.232 177.068L187.927 175.639L187.679 175.017C184.768 175.533 182.011 176.74 179.209 177.744L173.013 180.423L175.25 180.734L180.594 181.853L184.012 182.971L189.108 184.649L191.283 184.835L196.316 185.519L200.417 186.327L203.524 187.135L198.18 186.265L192.153 185.643L188.921 185.581L185.441 186.886L179.973 188.067L174.256 188.75L170.465 188.502L167.98 187.756L166.053 186.327L164.811 184.525L159.591 187.321L154.433 190.552L158.41 190.615L164.189 191.485L169.285 192.417L173.697 193.535L177.425 193.411L180.967 193.473L185.441 193.846L187.679 193.97L189.853 194.281L183.391 194.094L173.138 194.716L169.844 195.959L166.861 197.264L160.026 199.314L154.93 199.998L151.388 199.811L149.027 199.252L147.349 198.196L145.92 196.642C142.087 198.059 139.865 200.908 137.469 203.602L141.508 203.291L145.92 203.229L150.145 203.416L154.495 203.788L156.919 204.286L160.088 203.788L163.816 203.353L167.607 202.981L170.9 202.732L175.685 202.67L170.776 203.167L163.195 204.224L157.789 205.404L153.128 208.263L147.225 211.183L142.688 212.985L137.966 214.29L133.305 214.539L130.82 213.98L129.204 213.296L128.21 212.55C124.341 215.704 121.554 219.939 118.453 223.86L122.431 222.866L127.464 221.872L132.187 221.188L135.667 220.815L138.836 220.504L141.694 219.51L146.168 217.957L150.58 216.714L154.744 215.657L158.41 214.787L153.625 216.341L148.716 217.957L143.621 219.945L139.519 221.747L138.214 222.431L132.062 227.713L127.464 231.317L121.996 234.486L118.143 236.288L115.346 236.972L112.426 237.22L110.748 236.91L109.505 236.475C105.277 241.789 102.671 247.428 100.06 253.066L93.0337 250.954Z" fill="white" stroke="white" stroke-width="0.278832" stroke-linecap="round" stroke-linejoin="round"/>
<path d="M63.6269 236.652L69.5588 240.386L71.5801 229.533L74.2604 218.153L77.3802 205.63L78.3029 205.981L80.7636 206.728L83.8833 206.772L86.0364 206.377L88.2334 205.63L90.1668 204.575L92.935 202.905L96.1866 200.181L99.1746 197.105L102.075 193.898L104.096 191.129L106.205 188.185L109.281 183.396L112.488 178.079L114.334 174.696L115.652 172.103L123.825 164.721L128.878 160.679L134.678 156.153L138.018 153.78L135.381 155.406L130.768 158.438L124.616 162.612L119.607 166.523L116.399 169.028L115.125 170.258L114.07 171.005L113.279 171.796L108.138 174.125L103.349 176.453L98.5155 178.914L94.0775 181.375L89.3759 184.319L85.8607 186.648L81.906 189.855L87.8819 172.103H88.3652L90.6941 173.026L92.4517 173.29L96.3184 172.894L100.009 171.356L103.349 169.115L106.6 166.303L110.599 161.821L115.872 154.483L118.728 149.914L120.486 147.101L122.375 143.498L129.889 136.556L134.107 133.04L138.15 129.833L142.016 126.977L143.466 125.966L140.434 127.856L135.074 131.371L131.075 134.183L126.813 137.259L123.166 140.247L121.408 141.741L115.916 144.157L110.643 146.662L106.732 148.727L103.613 150.441L98.2518 153.736L93.9456 156.856L93.8578 156.373L99.7018 142.883L101.811 143.85L104.799 144.333L109.061 143.366L112.181 141.872L114.773 139.895L117.366 137.566L120.266 134.578L123.298 130.712L126.066 126.933L128.746 122.934L131.339 118.54L136.04 114.454L140.347 111.07L143.862 108.478L146.147 106.896L148.212 105.622L150.76 103.864L147.904 105.49L144.697 107.423L141.489 109.401L137.754 111.729L133.536 114.849L130.328 117.178L122.419 120.386L116.663 123.022L110.951 126.054L106.117 129.218L114.026 114.102L115.213 115.069L117.278 115.86L119.387 116.036L121.804 115.64L124.748 114.278L128.351 111.729L133.096 106.588L137.315 100.569L139.995 96.0868L142.06 92.4836L145.444 89.3199L149.618 85.8926L152.474 83.6956L154.847 81.894L158.098 79.697L155.198 81.4546L151.903 83.4319L149.047 85.4093L144.828 88.3972L142.148 90.5063L140.61 91.7806L135.601 93.9776L130.812 96.2186L125.627 99.1626L122.375 101.228L120.705 102.458L129.098 89.4078L129.933 90.1548L131.515 91.1654L133.843 91.473L136.26 91.1654L138.897 90.1548L142.719 87.5184L146.454 83.9153L148.607 81.4107L152.21 76.6651L154.276 73.4575L154.671 72.9742L156.956 71.0408L160.515 68.5362L163.723 66.3392L166.183 64.7573L168.249 63.3513L169.611 62.5603L167.59 63.527L164.382 65.1089L161.614 66.6468L158.801 68.4044L156.78 69.8105L155.462 70.6893L153.704 71.8757L149.926 73.1939L145.18 75.0833L140.962 77.1046L137.49 78.9501L135.162 80.4001L146.938 64.8013L148.563 62.9119L145.488 64.7134L134.371 77.8076L134.459 72.3151L133.536 67.0422L132.262 62.2528L131.075 58.1224L129.186 53.0692L128.614 47.0055L128.219 43.5342L127.296 38.6568L126.549 35.0977L126.945 38.2174L127.428 42.2599L127.692 46.6539L127.955 52.6738L126.725 55.9693L125.846 60.1436L124.704 65.6801L124.221 69.9862L124.308 74.6439L125.319 78.3788L126.813 80.8395L128.439 82.2895L129.889 82.9047L130.548 83.1683L118.904 99.602L118.552 94.1095L117.454 89.32L116.311 85.1457L114.685 80.8834L112.884 76.3576L111.39 72.9303L110.643 71.4802L109.764 66.1195L108.885 61.9452L108.05 58.2103L107.216 54.9147L106.029 51.1359L106.908 54.8708L107.743 59.6164L108.578 65.1968L109.061 71.1726L109.149 72.0954L108.05 77.0167L107.26 81.3668L106.556 87.2109V94.8125L107.128 98.3277L108.49 102.019L110.643 104.787L112.181 105.622L113.279 106.237L114.07 106.413L114.642 106.501L104.931 123.11L104.579 119.068L103.788 115.157L102.382 109.708L100.8 104.655L99.1746 100.217L97.8124 96.702L96.67 93.9777L95.923 87.6063L95.1321 83.0805L94.2972 78.8183L93.2426 74.2485L92.0123 69.5908L92.7593 73.8091L93.6381 79.2137L94.1214 83.9593L94.5608 89.2321L94.8245 92.8792L93.5941 97.3611L92.3638 102.634L91.5729 106.896L90.8698 112.96L90.6941 117.618L91.1334 122.231L92.0562 125.878L93.9456 129.394L95.7032 131.239L97.373 132.25L98.6033 132.733L99.7018 133.084L93.0668 146.662L91.0895 138.797L88.3652 131.151L86.4318 126.362L84.4106 121.748L83.4439 119.639L83.0484 118.848L82.1257 113.531L80.4999 105.885L79.6211 102.194L78.8301 99.1186L78.0831 96.5701L77.3362 94.1095L76.8528 92.3958L77.8195 96.7019L79.1377 102.766L80.0605 108.434L80.6756 112.916L81.2469 118.057L80.2802 121.924L79.2256 127.504L78.2589 133.304L77.6877 139.807V146.618L78.3029 151.188L79.7968 156.417L81.159 158.79L82.6969 160.679L84.1469 161.821L85.2894 162.524L86.0803 162.92L81.3347 175.047L80.0605 169.599L78.0832 163.271L76.1498 157.999L74.0846 152.77L71.2724 146.706L69.6466 143.279L68.8118 138.665L67.6693 133.392L66.7466 129.393L65.3844 124.296L63.7147 118.672L62.3965 114.586L63.5829 119.068L65.1647 126.186L66.4829 133.304L67.4057 140.422L67.7572 143.454L66.5708 149.211L65.5162 154.747L64.5496 161.997L64.1102 169.643L64.3738 174.872L64.7693 178.694L65.8238 183.132L67.5375 187.087L69.339 189.592L71.7997 191.789L74.1725 192.711L75.1392 193.063L71.8876 204.092L68.8118 214.769L66.0435 226.194L63.6269 236.652Z" fill="white" stroke="white" stroke-width="0.278832" stroke-linecap="round" stroke-linejoin="round"/>
</svg>
