<svg width="263" height="373" viewBox="0 0 263 373" fill="none" xmlns="http://www.w3.org/2000/svg">
<path d="M237.641 161.156C237.641 219.995 189.942 267.694 131.102 267.694C72.2629 267.694 24.564 219.995 24.564 161.156C24.564 102.316 72.2629 54.6171 131.102 54.6171C189.942 54.6171 237.641 102.316 237.641 161.156Z" fill="#F68D2F" stroke="#F68D2F" stroke-width="17.2381" stroke-linecap="round" stroke-linejoin="round"/>
<path d="M46.4116 158.434L48.9442 147.249L51.6878 138.807C53.0399 135.889 54.1337 132.586 56.5419 128.964L61.2002 122.999C62.4487 121.248 64.5449 119.708 66.4612 118.124L72.5816 115.591C74.8409 115.2 77.1002 115.323 79.3594 115.813C81.7207 116.459 83.3334 117.18 84.8224 117.913C87.2133 119.074 89.0667 120.504 90.9428 121.923L96.6411 128.043C99.0939 130.485 100.777 133.408 102.55 136.274L105.927 141.972L108.882 148.726L112.048 157.59L114.158 166.665L114.791 172.152V177.851L113.947 183.127L112.892 188.192L111.415 192.835L108.038 198.744L104.45 202.754L100.018 206.553L94.7417 209.93L87.7859 211.762C84.564 212.469 82.293 211.991 80.1793 212.463L71.3153 211.618L63.0844 207.609L56.753 203.176C54.1733 199.87 51.8386 196.564 49.9994 193.257L46.8337 185.237L45.7784 179.328L45.563 170.316L45.9895 164.344L46.4116 158.434Z" fill="#FEFEFE" stroke="#FEFEFE" stroke-width="0.278832"/>
<path d="M66.4539 148.784L68.2638 142.937L70.6306 138.342L74.2504 133.887L78.0095 131.451L79.1233 130.128L79.541 127.413C79.4573 126.789 78.7894 125.971 77.5919 124.977L75.9212 124.281H74.1113L70.4915 126.787L68.4031 128.736L66.3147 130.685L63.8087 133.887L62.1381 136.95L61.0242 140.013L59.632 143.633L58.6574 147.531L58.2397 150.315V151.29L59.4928 152.543L61.0242 153.657L63.4606 153.935L65.6186 152.543L66.106 150.803L66.4539 148.784Z" fill="#F68D2F" stroke="#F68D2F" stroke-width="0.278832"/>
<path d="M171.308 148.564L182.662 150.181L191.298 152.231C194.316 153.342 197.697 154.165 201.502 156.272L207.825 160.431C209.672 161.533 211.376 163.498 213.111 165.279L216.131 171.174C216.705 173.394 216.766 175.656 216.46 177.948C216.007 180.354 215.42 182.019 214.81 183.563C213.846 186.04 212.571 188.003 211.309 189.988L205.671 196.164C203.436 198.807 200.66 200.722 197.946 202.721L192.541 206.549L186.049 210.041L177.471 213.915L168.597 216.755L163.179 217.831L157.499 218.293L152.172 217.879L147.038 217.238L142.29 216.142L136.127 213.255L131.839 210.005L127.693 205.895L123.9 200.91L121.51 194.126C120.544 190.972 120.836 188.67 120.195 186.601L120.318 177.698L123.647 169.169L127.551 162.499C130.638 159.66 133.744 157.065 136.89 154.963L144.627 151.158L150.431 149.627L159.396 148.681L165.383 148.622L171.308 148.564Z" fill="#FEFEFE" stroke="#FEFEFE" stroke-width="0.278832"/>
<path d="M182.551 167.758L188.526 169.088L193.297 171.074L198.031 174.321L200.764 177.87L202.173 178.873L204.913 179.069C205.527 178.935 206.289 178.203 207.183 176.929L207.741 175.207L207.595 173.403L204.803 169.999L202.691 168.075L200.579 166.152L197.185 163.914L193.996 162.497L190.853 161.635L187.132 160.541L183.168 159.885L180.359 159.695L179.387 159.774L178.24 161.124L177.254 162.741L177.174 165.192L178.737 167.23L180.511 167.575L182.551 167.758Z" fill="#F68D2F" stroke="#F68D2F" stroke-width="0.278832"/>
<path d="M103.753 123.231C105.589 117.496 108.182 112.216 111.212 107.197C114.85 101.472 118.496 95.7966 122.369 91.4763C125.656 87.9373 129.206 84.7336 133.884 83.0498C136.891 81.2003 139.898 80.8855 142.904 80.9316C146.46 81.6436 149.898 83.7839 152.976 85.9288C156.373 89.014 158.129 91.3696 159.389 93.5048C161.897 98.069 164.389 102.633 165.729 107.197L168.691 118.503C169.378 122.896 170.066 128.603 170.753 134.657V140.616L162.432 139.907C157.904 139.879 153.154 139.74 150.001 140.399C144.67 140.564 140.488 142.738 136.061 144.484L128.77 149.286L121.608 155.629L116.029 142.19C115.016 139.798 113.302 136.706 111.094 133.12C108.964 130.203 107.029 127.521 103.753 123.231V123.231Z" fill="#FEFEFE" stroke="#FEFEFE" stroke-width="0.278832"/>
<path d="M129.922 112.991L132.415 107.401L135.312 103.121L139.437 99.1287L143.459 97.1573L144.723 95.9768L145.461 93.3309C145.45 92.7019 144.886 91.81 143.816 90.6798L142.24 89.7896L140.443 89.5741L136.55 91.6312L134.245 93.3177L131.939 95.0043L129.07 97.8852L127.046 100.727L125.575 103.636L123.762 107.064L122.33 110.819L121.584 113.533L121.468 114.501L122.563 115.894L123.951 117.183L126.336 117.749L128.645 116.624L129.336 114.954L129.922 112.991Z" fill="#F68D2F" stroke="#F68D2F" stroke-width="0.278832" stroke-linejoin="round"/>
</svg>
