<svg width="263" height="373" viewBox="0 0 263 373" fill="none" xmlns="http://www.w3.org/2000/svg">
<path d="M245.031 162.837C245.031 225.758 194.023 276.766 131.102 276.766C68.1814 276.766 17.1738 225.758 17.1738 162.837C17.1738 99.9162 68.1814 48.9087 131.102 48.9087C194.023 48.9087 245.031 99.9162 245.031 162.837Z" fill="#6D351E" stroke="#6D351E" stroke-width="2.45784" stroke-linecap="round" stroke-linejoin="round"/>
<path d="M143.214 96.4405L155.064 92.4323L163.778 90.1667L169.354 90.341L173.537 91.7352L177.022 95.0463L177.371 99.0545L176.674 101.843L173.711 104.283L168.657 106.897L164.998 109.162L162.906 111.95L161.512 117.876L160.467 122.755L161.512 130.249L165.346 135.303L170.574 142.622L176.325 154.995L178.765 163.012L181.031 177.127L181.728 187.061L181.205 196.646L179.288 207.102L176.151 214.595L172.492 220.869L168.309 227.666L164.301 231.674L159.421 234.462L150.534 235.508L126.484 235.159L118.817 234.462L115.157 233.591L112.194 231.674L108.36 227.491L100.17 215.292L97.0328 206.579L94.9416 198.737L94.5931 190.895L94.7677 187.584L92.1536 183.75L88.3197 176.779L84.8343 169.634L81.6974 158.829L80.4775 152.73L81.3489 144.016L82.9173 135.477L86.2284 128.506L92.6764 121.361L99.2987 117.701L106.444 115.262L103.481 109.336L102.61 104.98L103.307 102.017L107.141 99.2288L114.809 96.9633L122.999 95.7434H129.273H135.373L139.032 96.2662L138.335 96.6147L135.198 97.4861H131.016L125.962 97.8346L118.817 98.5317L113.415 100.274L110.278 102.017L111.149 103.76L114.634 104.631L119.863 105.328L122.128 105.154L127.008 103.411L135.198 99.9259L141.123 97.3118L143.214 96.4405Z" fill="white" stroke="white" stroke-width="0.278832" stroke-linecap="round" stroke-linejoin="round"/>
<path d="M95.2028 173.729L96.5099 165.538L99.211 156.302L102.522 147.85L105.485 142.361L108.012 138.527L108.796 137.132L109.929 133.908L110.19 128.593L109.58 124.934L108.796 123.975L107.576 123.365L106.618 123.714L101.564 126.502L97.9913 129.116L93.0246 134.257L90.4106 138.701L88.5807 144.277L88.0581 150.116L88.6682 155.866L89.7138 161.182L91.3692 166.061L93.1119 169.721L95.2028 173.729Z" fill="#6D351E" stroke="#6D351E" stroke-width="0.278832" stroke-linejoin="round"/>
<path d="M117.597 115.959L119.949 115.174L122.563 115.087L124.132 115.436L125.003 117.266L125.352 120.054V125.543L125.177 130.51L124.393 135.39L122.825 139.224L121.866 141.141L120.472 143.929L118.816 146.63L116.202 150.9L114.46 154.995L111.497 161.617L109.406 167.717L108.012 171.115L106.879 173.903L105.746 174.513L104.788 174.339L104.178 173.903L103.829 172.161L105.398 163.796L107.489 157.609L110.451 149.593L113.501 143.929L116.028 139.049L117.771 135.128L118.293 131.904L117.422 124.759L116.986 119.705L116.9 117.701L117.597 115.959Z" fill="#6D351E" stroke="#6D351E" stroke-width="0.278832" stroke-linecap="round" stroke-linejoin="round"/>
</svg>
