<svg width="263" height="373" viewBox="0 0 263 373" fill="none" xmlns="http://www.w3.org/2000/svg">
<path d="M237.641 161.199C237.641 220.038 189.942 267.737 131.102 267.737C72.2629 267.737 24.564 220.038 24.564 161.199C24.564 102.359 72.2629 54.6602 131.102 54.6602C189.942 54.6602 237.641 102.359 237.641 161.199Z" fill="#1CB6F1" stroke="#1CB6F1" stroke-width="17.2381" stroke-linecap="round" stroke-linejoin="round"/>
<path d="M168.213 177.954L166.884 188.974L165.485 193.954C164.978 195.947 164.195 197.781 163.283 199.542C162.391 200.93 160.682 202.084 159.381 203.355L152.503 208.357L147.188 211.718L143.202 213.672L134.995 213.75L130.384 213.594C126.527 213.796 122.271 213.599 118.205 213.594C113.852 211.831 109.7 208.663 105.451 206.169L97.9481 199.994L95.6213 194.845L93.7455 186.304L92.6333 174.671L93.5712 169.825L95.2433 166.929L96.932 164.901L98.886 160.446L102.559 151.301L104.513 148.332L107.718 145.596L111.86 143.642L113.736 142.235L114.752 140.985L115.221 139.968L115.768 137.936L116.472 136.373L118.582 135.904L120.77 136.686L123.115 138.249L125.225 138.718L127.492 138.405L129.315 138.427C129.709 138.553 129.606 138.678 129.684 138.804L130.414 138.896L130.719 139.136L130.871 138.722L131.503 138.744L131.873 138.396L132.984 138.373L134.443 138.57L135.598 138.547L136.84 138.592L137.907 138.352L138.778 137.96L140.282 136.936L140.891 136.697L141.697 136.392L142.787 136.065L144.072 136.109L145.074 136.806L145.575 138.048L145.901 140.444L146.577 141.272L148.015 142.862L151.238 144.474L153.221 145.411L155.225 146.849L156.51 148.178L157.991 150.726L158.47 151.685L159.843 154.429L161.498 158.503L162.065 160.006L163.829 164.036L165.79 166.955L167.336 169.569L167.641 170.397L168.273 171.856L168.213 177.954Z" fill="white" stroke="white" stroke-width="0.278832"/>
<path d="M92.8705 166.806L94.7252 164.439H94.8928L95.6468 163.434L97.5738 158.239L99.1657 153.547L90.8888 147.223L92.3793 144.918L93.3847 141.399L93.335 135.641L92.379 130.172L96.3168 127.91L101.991 123.478L108.047 116.85L111.398 110.231L112.655 103.529C112.484 101.846 112.538 100.614 111.984 98.1666L111.398 95.5693L109.471 99.0882L106.79 103.445L103.355 107.383L100.338 110.65L96.7358 113.583L93.3007 115.845L90.8938 117.104L91.0385 112.326L92.8817 102.356L95.9817 94.3963L98.9979 87.1909L95.6466 89.7044L90.6196 92.8882L88.1061 94.8152L84.5034 98.4179L81.4872 102.272L78.7223 106.21L75.8737 112.242L73.6115 120.202L72.9413 125.648L72.7737 129.921L73.444 136.121L74.4493 140.058L75.7899 144.164L77.2142 146.593L78.8061 148.102L80.2304 149.191L81.9061 152.123L82.9115 154.134L85.3412 158.742L87.8547 161.926L89.5304 163.937L91.0993 165.587L92.0959 166.563C92.6715 166.447 92.5804 166.219 92.8703 166.806H92.8705Z" fill="white" stroke="white" stroke-width="0.278832"/>
<path d="M92.7648 167.25L88.8281 165.98L85.7485 164.964L82.6054 164.138L80.8593 163.757L79.4624 163.503L78.5099 163.662L77.7162 163.98L77.113 164.488L76.0019 165.44L75.4304 165.885L75.0494 166.615L75.1129 167.408L75.3351 168.361L76.0971 169.567L77.1765 170.551L78.256 171.409L79.9703 172.71L82.0975 173.853L83.8754 174.71L85.7802 175.568L89.6852 177.155L85.9707 177.695L81.9387 178.298L78.5417 178.679L76.1923 179.06L75.0177 179.631L74.1287 180.552L73.6207 181.822L73.2397 183.155L73.2715 184.394L73.97 185.473L75.2717 186.267L76.8591 186.807L78.7957 187.283L80.6371 187.505L82.9547 187.6L85.5898 187.568L87.7486 187.378L90.1297 187.156L90.6694 187.029L89.717 187.378L88.2248 187.886L85.304 189.219L82.6054 191.061L81.2403 192.172L79.8751 193.442L78.383 195.156L77.24 196.871L76.6051 198.236L76.4146 199.918L77.0178 201.188L77.7797 202.046L78.5099 202.522L79.3671 202.998L80.3196 203.252L81.3038 203.061L82.7007 202.554L83.9071 201.982L85.3675 201.093L87.0819 200.014L88.2566 199.347L89.6852 198.712L91.7171 197.887L93.241 197.474L93.9077 197.283L92.8601 197.918L91.8441 198.712L90.1932 200.236L89.463 201.284L88.4153 202.903L87.5264 204.744L86.9549 206.268L86.7327 207.189L86.8279 208.332L87.1137 209.697L88.1296 210.586L88.9551 210.903L89.3678 210.935L90.1615 211.316L91.0505 211.57L92.3521 211.157L93.495 210.332L94.9872 208.808L96.2889 207.919L99.0192 206.268L100.797 205.474L101.178 205.252L100.13 204.427L98.6065 203.188L97.5588 202.014L96.4476 200.585L95.6539 199.315L94.0665 195.632L93.3363 193.22L92.2569 188.616L92.0981 187.156L91.1139 180.33L90.8917 177.06L91.0187 172.742L91.1774 171.726L91.3361 171.472L91.3044 171.186L91.3996 170.107L92.0981 168.583L92.5743 167.631L92.7648 167.25Z" fill="white" stroke="white" stroke-width="0.278832"/>
<path d="M66.1479 157.172L66.5164 158.054L67.3754 159.505L68.3233 161.075L69.1823 162.171L70.1006 163.415L70.7523 164.126L71.2855 164.541L72.0853 164.926L72.7369 165.015L73.6256 164.985L74.4846 164.57L75.3437 163.711L75.8176 162.526L75.8769 161.43L75.4029 159.653L74.5143 158.646L72.7666 156.454L70.8115 153.64L69.4785 151.626L68.6787 150.381L67.7308 149.493L67.0495 149.048L66.072 148.812L65.0648 149.256L64.3835 149.937L64.2058 150.915L64.3835 152.011L64.6798 153.403L65.1833 154.884L65.4796 155.743L65.8446 156.501L66.1479 157.172Z" fill="white" stroke="white" stroke-width="0.278832"/>
<path d="M62.3613 136.697L62.2524 137.721L62.0781 138.745L62.0999 140.553L62.1434 142.099L62.2087 143.341L62.3394 144.888L62.4266 145.802L62.5573 146.391L62.8623 146.935L63.2327 147.48L63.6684 147.719L64.2783 147.981L64.9536 147.894L65.6725 147.632L66.1299 147.088L66.3913 146.608L66.5656 146.064L66.6091 145.585L66.6526 145.171L66.4565 144.909L66.0644 143.689L65.5416 141.663L65.2584 140.335L65.1495 139.594L64.6702 137.96L64.1474 136.13L63.7117 135.019L63.5156 134.714L63.2543 134.562L62.8839 134.954L62.6225 135.717L62.4918 136.326L62.3613 136.697Z" fill="white" stroke="white" stroke-width="0.278832"/>
<path d="M54.5627 156.651L54.2795 156.934L54.0399 157.893L53.9091 158.829L53.8002 160.093L53.7349 161.639L53.7566 162.663L53.8001 163.665L53.9744 164.929L54.2576 166.236L54.5843 167.543L54.8675 167.978L55.1071 168.61L55.4338 169.133L55.9567 169.416L56.6755 169.525L57.2419 169.373L57.438 169.22L58.2222 168.763L58.5707 168.262L58.7014 167.913L58.8539 167.369L58.7014 166.454L58.2875 165.865L57.2419 163.752L56.5884 161.879L55.8478 159.265L55.3685 157.74L55.0418 156.847L54.8675 156.542L54.5627 156.651Z" fill="white" stroke="white" stroke-width="0.278832"/>
<path d="M62.0459 178.576L61.0874 177.661L60.02 176.859L58.9526 175.944L58.408 175.161L57.907 174.134L57.4931 173.201L57.4277 172.548L57.4428 171.501L57.9393 170.964L58.4621 170.652C58.8183 170.191 59.1744 170.216 59.5306 170.257L60.8021 170.801L62.7487 172.21L64.676 173.589L66.6905 174.784L69.2105 176.187L71.0426 177.232L71.4565 177.344L72.219 178.147L72.5457 178.483L72.8071 179.08L72.7853 179.546L72.6111 180.237L72.3061 180.853L71.9357 181.413L71.5872 181.73L70.9555 182.047L70.2148 182.253L69.3217 182.215L68.6246 182.122L67.1651 181.599L65.5967 180.741L64.0282 179.826L62.9173 179.211L62.0459 178.576Z" fill="white" stroke="white" stroke-width="0.258087"/>
<path d="M76.2443 212.216L78.1149 208.05C78.4253 207.561 78.8685 207.293 78.7528 206.094C78.4561 205.148 78.4624 205.046 78.1151 204.478C77.6474 203.542 77.1797 203.559 76.712 203.16C75.7689 202.514 75.2384 202.901 74.572 202.947C73.2783 203.676 73.003 204.2 72.4038 204.79L70.1503 210.501L69.3852 213.86L69.0449 217.686L69.7819 219.897L71.2558 221.003L72.6588 220.677L73.4382 219.599L75.1106 215.079L76.2443 212.216Z" fill="white" stroke="white" stroke-width="0.278832"/>
<path d="M70.4838 223.363L71.1075 222.569L71.5612 222.342L72.1487 222.23L73.0355 222.286L73.7727 222.57L74.1129 223.363L74.2264 223.817L74.5666 224.668L74.7934 225.575L75.1904 227.08L75.8141 228.637L76.608 230.508L77.1184 231.983L77.7421 233.117L78.0256 233.74V234.251L77.4586 234.308L76.4946 233.854L75.644 233.287L74.2831 232.096L73.2057 230.622L71.788 228.467L71.1643 227.08L70.5768 225.425L70.3704 224.214L70.4838 223.363Z" fill="white" stroke="white" stroke-width="0.278832"/>
<path d="M96.2719 228.263L96.6461 227.852L97.1324 227.478L97.731 227.08H98.6663L100.499 227.627L102.333 228.188L103.567 228.562L105.251 229.049L106.56 229.311L108.094 229.685L109.329 230.059L109.927 230.62L109.74 230.919L109.179 231.181L108.506 231.368L107.757 231.481L106.71 231.742L105.363 231.855L104.428 231.892H103.006L101.771 231.78L100.275 231.63L99.1153 231.406L97.6562 231.069L96.7209 230.47L96.1223 229.685V228.675L96.2719 228.263Z" fill="white" stroke="white" stroke-width="0.278832"/>
<path d="M91.3335 219.846L91.1838 218.835L91.1464 217.825V217.115L91.2961 216.366V215.88L91.3334 215.431L91.1464 214.645L90.5104 213.71L89.9866 213.149L89.0513 212.775L88.4527 212.401H87.8542L87.1808 212.513L86.5822 212.887L85.6843 213.448L85.0109 214.458L84.8238 215.169L84.5994 216.479L84.6367 217.9L84.8238 219.584L85.0856 221.043L85.4598 222.464L86.1706 224.036L87.1433 225.42L88.4901 227.08L89.9492 227.889L91.109 228.637L92.4932 229.011L93.4659 229.124L94.289 228.899L94.7005 228.376L95.0372 227.74L95.2617 227.08L95.0372 225.981L94.3638 224.971L93.1666 223.475L92.3062 222.315L91.8198 221.454L91.4831 220.631L91.3335 219.846Z" fill="white" stroke="white" stroke-width="0.278832"/>
<path d="M169.334 167.704L167.479 165.338H167.312L166.558 164.332L164.631 159.138L163.039 154.446L171.316 148.122L169.825 145.816L168.82 142.297L168.87 136.539L169.826 131.07L165.888 128.808L160.213 124.376L154.158 117.749L150.807 111.13L149.55 104.427C149.721 102.745 149.667 101.512 150.22 99.065L150.807 96.4677L152.734 99.9866L155.415 104.343L158.85 108.281L161.866 111.549L165.469 114.481L168.904 116.743L171.311 118.003L171.166 113.224L169.323 103.254L166.223 95.2947L163.207 88.0894L166.558 90.6029L171.585 93.7866L174.099 95.7137L177.701 99.3164L180.717 103.17L183.482 107.108L186.331 113.141L188.593 121.1L189.263 126.546L189.431 130.819L188.761 137.019L187.755 140.957L186.415 145.062L184.99 147.492L183.398 149L181.974 150.089L180.299 153.022L179.293 155.032L176.863 159.641L174.35 162.824L172.674 164.835L171.105 166.485L170.109 167.461C169.533 167.345 169.624 167.117 169.334 167.704H169.334Z" fill="white" stroke="white" stroke-width="0.278832"/>
<path d="M169.44 168.148L173.377 166.878L176.456 165.862L179.599 165.037L181.345 164.656L182.742 164.402L183.695 164.561L184.488 164.878L185.092 165.386L186.203 166.339L186.774 166.783L187.155 167.513L187.092 168.307L186.869 169.259L186.107 170.466L185.028 171.45L183.949 172.307L182.234 173.609L180.107 174.752L178.329 175.609L176.424 176.466L172.519 178.054L176.234 178.593L180.266 179.196L183.663 179.577L186.012 179.958L187.187 180.53L188.076 181.451L188.584 182.721L188.965 184.054L188.933 185.292L188.235 186.372L186.933 187.165L185.346 187.705L183.409 188.181L181.568 188.403L179.25 188.499L176.615 188.467L174.456 188.276L172.075 188.054L171.535 187.927L172.488 188.276L173.98 188.784L176.901 190.118L179.599 191.959L180.964 193.07L182.329 194.34L183.822 196.055L184.965 197.769L185.6 199.134L185.79 200.817L185.187 202.087L184.425 202.944L183.695 203.42L182.837 203.896L181.885 204.15L180.901 203.96L179.504 203.452L178.297 202.88L176.837 201.992L175.123 200.912L173.948 200.245L172.519 199.61L170.487 198.785L168.964 198.372L168.297 198.182L169.345 198.817L170.36 199.61L172.011 201.134L172.742 202.182L173.789 203.801L174.678 205.643L175.25 207.166L175.472 208.087L175.377 209.23L175.091 210.595L174.075 211.484L173.25 211.802L172.837 211.833L172.043 212.214L171.154 212.468L169.852 212.056L168.71 211.23L167.217 209.706L165.916 208.817L163.185 207.166L161.407 206.373L161.027 206.151L162.074 205.325L163.598 204.087L164.646 202.912L165.757 201.484L166.551 200.214L168.138 196.531L168.868 194.118L169.948 189.515L170.106 188.054L171.091 181.228L171.313 177.958L171.186 173.641L171.027 172.625L170.868 172.371L170.9 172.085L170.805 171.006L170.107 169.482L169.63 168.529L169.44 168.148Z" fill="white" stroke="white" stroke-width="0.278832"/>
<path d="M196.057 158.07L195.688 158.952L194.829 160.403L193.881 161.973L193.022 163.069L192.104 164.314L191.452 165.024L190.919 165.439L190.119 165.824L189.468 165.913L188.579 165.884L187.72 165.469L186.861 164.61L186.387 163.425L186.328 162.329L186.802 160.552L187.69 159.544L189.438 157.352L191.393 154.538L192.726 152.524L193.526 151.28L194.474 150.391L195.155 149.947L196.133 149.71L197.14 150.154L197.821 150.836L197.999 151.813L197.821 152.909L197.525 154.301L197.021 155.782L196.725 156.642L196.36 157.399L196.057 158.07Z" fill="white" stroke="white" stroke-width="0.278832"/>
<path d="M199.843 137.595L199.952 138.619L200.126 139.643L200.105 141.451L200.061 142.998L199.996 144.239L199.865 145.786L199.778 146.701L199.647 147.289L199.342 147.834L198.972 148.378L198.536 148.618L197.926 148.879L197.251 148.792L196.532 148.531L196.075 147.986L195.813 147.507L195.639 146.962L195.596 146.483L195.552 146.069L195.748 145.808L196.14 144.588L196.663 142.562L196.946 141.233L197.055 140.492L197.534 138.859L198.057 137.029L198.493 135.918L198.689 135.613L198.95 135.46L199.321 135.853L199.582 136.615L199.713 137.225L199.843 137.595Z" fill="white" stroke="white" stroke-width="0.278832"/>
<path d="M207.642 157.549L207.925 157.832L208.165 158.791L208.295 159.728L208.404 160.991L208.47 162.538L208.448 163.562L208.404 164.564L208.23 165.827L207.947 167.134L207.62 168.441L207.337 168.877L207.097 169.509L206.771 170.031L206.248 170.315L205.529 170.423L204.963 170.271L204.767 170.119L203.982 169.661L203.634 169.16L203.503 168.812L203.351 168.267L203.503 167.352L203.917 166.764L204.963 164.651L205.616 162.777L206.357 160.163L206.836 158.639L207.163 157.745L207.337 157.44L207.642 157.549Z" fill="white" stroke="white" stroke-width="0.278832"/>
<path d="M200.159 179.474L201.117 178.56L202.185 177.757L203.252 176.843L203.797 176.059L204.298 175.033L204.712 174.099L204.777 173.446L204.762 172.4L204.265 171.863L203.742 171.551C203.386 171.089 203.03 171.114 202.674 171.155L201.402 171.699L199.456 173.109L197.529 174.487L195.514 175.682L192.994 177.085L191.162 178.131L190.748 178.243L189.986 179.045L189.659 179.381L189.398 179.978L189.419 180.445L189.594 181.135L189.899 181.751L190.269 182.311L190.617 182.629L191.249 182.946L191.99 183.151L192.883 183.114L193.58 183.02L195.039 182.498L196.608 181.639L198.176 180.725L199.287 180.109L200.159 179.474Z" fill="white" stroke="white" stroke-width="0.258087"/>
<path d="M185.96 213.114L184.09 208.948C183.779 208.459 183.336 208.191 183.452 206.992C183.748 206.046 183.742 205.945 184.089 205.376C184.557 204.441 185.025 204.457 185.493 204.058C186.436 203.413 186.966 203.799 187.633 203.846C188.926 204.574 189.202 205.099 189.801 205.688L192.054 211.4L192.819 214.758L193.16 218.585L192.423 220.796L190.949 221.901L189.546 221.575L188.766 220.498L187.094 215.977L185.96 213.114Z" fill="white" stroke="white" stroke-width="0.278832"/>
<path d="M191.721 224.262L191.097 223.468L190.643 223.241L190.056 223.129L189.169 223.184L188.432 223.468L188.092 224.262L187.978 224.715L187.638 225.566L187.411 226.473L187.014 227.978L186.39 229.535L185.597 231.407L185.086 232.881L184.462 234.015L184.179 234.639V235.149L184.746 235.206L185.71 234.752L186.561 234.185L187.922 232.994L188.999 231.52L190.417 229.365L191.04 227.978L191.628 226.324L191.834 225.112L191.721 224.262Z" fill="white" stroke="white" stroke-width="0.278832"/>
<path d="M165.933 229.162L165.559 228.75L165.072 228.376L164.474 227.978H163.538L161.705 228.526L159.872 229.087L158.637 229.461L156.954 229.947L155.644 230.209L154.111 230.583L152.876 230.957L152.277 231.519L152.464 231.818L153.026 232.08L153.699 232.267L154.447 232.379L155.495 232.641L156.842 232.753L157.777 232.791H159.199L160.433 232.678L161.93 232.529L163.089 232.304L164.548 231.968L165.484 231.369L166.082 230.583V229.573L165.933 229.162Z" fill="white" stroke="white" stroke-width="0.278832"/>
<path d="M170.871 220.744L171.021 219.734L171.058 218.724V218.013L170.909 217.265V216.778L170.871 216.329L171.058 215.544L171.694 214.609L172.218 214.047L173.153 213.673L173.752 213.299H174.35L175.024 213.411L175.622 213.785L176.52 214.347L177.194 215.357L177.381 216.068L177.605 217.377L177.568 218.799L177.381 220.482L177.119 221.941L176.745 223.363L176.034 224.934L175.061 226.318L173.714 227.978L172.255 228.788L171.096 229.536L169.711 229.91L168.739 230.022L167.916 229.798L167.504 229.274L167.167 228.638L166.943 227.978L167.167 226.88L167.841 225.869L169.038 224.373L169.898 223.213L170.385 222.353L170.721 221.53L170.871 220.744Z" fill="white" stroke="white" stroke-width="0.278832"/>
</svg>
