<svg width="263" height="373" viewBox="0 0 263 373" fill="none" xmlns="http://www.w3.org/2000/svg">
<path d="M237.641 161.155C237.641 219.995 189.942 267.694 131.102 267.694C72.2629 267.694 24.564 219.995 24.564 161.155C24.564 102.316 72.2629 54.6169 131.102 54.6169C189.942 54.6169 237.641 102.316 237.641 161.155Z" fill="#4DC4D5" stroke="#4DC4D5" stroke-width="17.2381" stroke-linecap="round" stroke-linejoin="round"/>
<path d="M112.405 88.4092L106.48 89.2805C103.474 90.0213 100.939 91.3113 99.4133 92.9402L94.107 97.2969L89.576 101.305L83.807 103.997L78.0741 105.313L70.9291 107.056L65.1782 112.458L61.6928 119.081L58.0331 126.574C57.1587 127.809 55.2316 128.869 52.58 129.807C50.4353 131.03 49.9975 131.252 47.3094 133.848C45.857 135.632 44.7995 137.811 44.8216 141.069L45.3417 146.726L46.4384 150.924C45.3685 152.371 46.2274 154.975 46.5313 157.246C47.0639 161.1 47.8963 164.729 49.6079 167.699C51.8396 172.146 55.9362 176.593 59.5536 181.04L71.2296 192.244L84.6964 203.602L94.9783 210.747L93.2356 214.755L89.2274 220.854C88.2402 222.481 87.6382 224.107 87.8333 225.734C87.9515 229.298 89.3934 231.008 90.9701 232.53C94.2231 233.527 97.4762 234.223 100.729 233.75H165.209L170.611 231.659C172.295 230.914 173.541 229.644 173.748 227.128C174.003 225.358 173.86 223.722 173.226 222.248C173.248 218.096 168.811 214.581 166.604 210.747C171.632 207.791 176.901 205.205 181.053 200.498L196.404 187.046L207.034 176.415L211.914 168.922L214.528 162.648L215.778 156.708L215.922 152.889V151.146L216.144 146.823C216.609 145.886 216.851 142.667 217.316 140.864C217.69 138.773 216.451 136.682 215.399 134.591L213.308 131.628L208.368 129.396L203.897 126.574L202.298 123.645C202.648 121.99 200.261 119.261 199.54 117.338C198.768 115.283 196.328 112.227 194.138 109.322L190.481 106.834L182.985 104.442L177.234 103.048L170.611 99.911L164.861 94.6829C163.849 93.0564 160.125 91.4299 157.193 89.8033L153.184 88.4092H146.562L137.152 90.6747L133.143 91.0232L126.488 90.9903L119.376 89.2806L112.405 88.4092Z" fill="#F9F9F9" stroke="#F9F9F9" stroke-width="0.278832" stroke-linecap="round" stroke-linejoin="round"/>
<path d="M70.0266 133.319L68.8476 134.498L67.5899 135.834L66.5681 136.699L65.3108 137.642L63.8173 138.428L62.481 139.135L105.868 183.151L70.0266 133.319Z" fill="#4DC4D5" stroke="#4DC4D5" stroke-width="0.278832" stroke-linecap="round" stroke-linejoin="round"/>
<path d="M100.68 109.032L99.4226 110.054L98.2436 111.076L96.9859 111.862L95.8069 112.569L95.4137 112.648L94.6278 112.962L93.2129 113.905L91.877 114.22L119.386 180.4L100.68 109.032Z" fill="#4DC4D5" stroke="#4DC4D5" stroke-width="0.278832" stroke-linecap="round" stroke-linejoin="round"/>
<path d="M129.29 102.037L130.862 102.508L131.962 102.587H132.827L134.32 102.508L135.735 102.587L137.229 102.508L138.014 102.43L139.036 102.194H139.429L134.163 182.522L129.29 102.037Z" fill="#4DC4D5" stroke="#4DC4D5" stroke-width="0.278832" stroke-linecap="round" stroke-linejoin="round"/>
<path d="M167.882 109.032L169.297 110.211L170.397 111.154L171.734 111.94L172.991 112.412L173.306 112.569L174.17 113.355L175.271 113.827L176.685 114.455L149.019 180.714L167.882 109.032Z" fill="#4DC4D5" stroke="#4DC4D5" stroke-width="0.278832" stroke-linecap="round" stroke-linejoin="round"/>
<path d="M198.693 133.24L199.794 134.419L200.815 135.756L202.466 137.013L204.274 138.114L206.082 139.057L162.38 183.544L198.693 133.24Z" fill="#4DC4D5" stroke="#4DC4D5" stroke-width="0.278832" stroke-linecap="round" stroke-linejoin="round"/>
</svg>
