<svg width="263" height="373" viewBox="0 0 263 373" fill="none" xmlns="http://www.w3.org/2000/svg">
<path d="M245.031 160.23C245.031 223.151 194.023 274.158 131.102 274.158C68.1814 274.158 17.1738 223.151 17.1738 160.23C17.1738 97.3087 68.1814 46.3011 131.102 46.3011C194.023 46.3011 245.031 97.3087 245.031 160.23Z" fill="#C09328" stroke="#C09328" stroke-width="2.45784" stroke-linecap="round" stroke-linejoin="round"/>
<path d="M196.559 223.779C195.931 222.18 195.597 220.425 194.674 219.002L191.932 216.41L187.305 213.326L181.65 211.098L173.596 208.87L166.913 207.671L158.002 206.985L152.518 207.328L145.835 209.727L138.295 212.469L132.469 213.497L123.215 213.669L116.189 212.812L108.82 211.612L101.623 210.584L95.2822 210.07L87.7422 209.213L80.3735 209.556L79.688 207.499L78.6598 202.873L79.1736 199.445L80.0304 198.246L85.1713 194.99L89.9696 190.534L92.1973 187.278L92.369 182.823L92.0263 178.539L91.3408 175.454L90.3126 172.712V169.97L92.1977 168.085L95.2822 166.886L98.3668 165.172L100.766 162.773L102.822 159.517L103.851 156.09L105.05 153.862L104.707 151.977L102.308 149.749H100.08L98.3668 150.777L96.9959 153.691L95.7963 156.947L94.4254 159.174L91.1695 160.717L87.3994 162.259L84.829 165.001L83.1153 168.428L82.9436 172.027L83.9718 176.311L84.8286 180.595L85.5141 183.851L84.8286 185.736L81.744 188.135L79.1736 190.191L76.2604 192.248L74.204 193.962L72.4903 197.046L71.4621 201.673L71.8049 206.643L72.4903 209.384L73.0042 211.955L69.0628 213.497L65.1214 216.582L63.0651 219.666L62.0369 223.95L63.2364 228.577L67.1778 233.033L73.1756 238.516L79.002 241.772L86.3707 244.514L93.3967 246.057L104.535 247.256L116.531 247.942L130.412 249.141L142.75 248.798L154.745 247.77L164.171 246.057L172.91 243.657L181.993 239.716L188.847 235.775L193.817 231.148L196.216 227.378L196.58 223.865" fill="white"/>
<path d="M196.559 223.779C195.931 222.18 195.597 220.425 194.674 219.002L191.932 216.41L187.305 213.326L181.65 211.098L173.596 208.87L166.913 207.671L158.002 206.985L152.518 207.328L145.835 209.727L138.295 212.469L132.469 213.497L123.215 213.669L116.189 212.812L108.82 211.612L101.623 210.584L95.2822 210.07L87.7422 209.213L80.3735 209.556L79.688 207.499L78.6598 202.873L79.1736 199.445L80.0304 198.246L85.1713 194.99L89.9696 190.534L92.1973 187.278L92.369 182.823L92.0263 178.539L91.3408 175.454L90.3126 172.712V169.97L92.1977 168.085L95.2822 166.886L98.3668 165.172L100.766 162.773L102.822 159.517L103.851 156.09L105.05 153.862L104.707 151.977L102.308 149.749H100.08L98.3668 150.777L96.9959 153.691L95.7963 156.947L94.4254 159.174L91.1695 160.717L87.3994 162.259L84.829 165.001L83.1153 168.428L82.9436 172.027L83.9718 176.311L84.8286 180.595L85.5141 183.851L84.8286 185.736L81.744 188.135L79.1736 190.191L76.2604 192.248L74.204 193.962L72.4903 197.046L71.4621 201.673L71.8049 206.643L72.4903 209.384L73.0042 211.955L69.0628 213.497L65.1214 216.582L63.0651 219.666L62.0369 223.95L63.2364 228.577L67.1778 233.033L73.1756 238.516L79.002 241.772L86.3707 244.514L93.3967 246.057L104.535 247.256L116.531 247.942L130.412 249.141L142.75 248.798L154.745 247.77L164.171 246.057L172.91 243.657L181.993 239.716L188.847 235.775L193.817 231.148L196.216 227.378L196.58 223.865" stroke="white" stroke-width="0.274184" stroke-linecap="round" stroke-linejoin="round"/>
<path d="M162.185 237.67L166.789 236.822L170.303 235.852L174.847 233.974L177.877 232.338L180.179 230.945L182.057 229.551L184.178 227.673L185.753 225.492L187.025 222.887L187.51 220.766L187.571 219.312L187.51 218.706L188.419 219.918L189.085 221.554L189.328 222.887L189.146 224.462L188.843 225.674L188.237 226.885L187.329 228.279L186.359 229.43L184.602 230.763L182.785 232.217L180.846 233.489L178.301 235.125L176.726 236.034L174.969 236.822L173.03 237.428L171.091 238.094L169.274 238.276L167.214 238.397L165.154 238.215L163.821 238.094L162.185 237.67Z" fill="#C09328" stroke="#C09328" stroke-width="0.274184" stroke-linecap="round" stroke-linejoin="round"/>
<path d="M109.353 143.942L122.924 123.343L112.261 113.043L119.531 105.772L149.704 135.824L142.433 143.094L131.77 132.552L112.019 146.244L109.353 143.942Z" fill="#FEFEFE" stroke="#FEFEFE" stroke-width="0.274184" stroke-linecap="round" stroke-linejoin="round"/>
<path d="M116.987 96.1997L159.64 138.853L215.622 82.0224C211.695 76.7912 206.33 72.5181 200.475 68.5721C198.551 66.445 194.292 63.9844 190.175 61.5441C186.932 57.7909 182.55 55.6103 176.24 53.789C174.657 51.8479 168.847 51.1694 162.79 49.5479L116.987 96.1997Z" fill="white" stroke="white" stroke-width="0.274184" stroke-linecap="round" stroke-linejoin="round"/>
</svg>
