<svg width="263" height="373" viewBox="0 0 263 373" fill="none" xmlns="http://www.w3.org/2000/svg">
<path d="M237.641 161.156C237.641 219.995 189.942 267.694 131.102 267.694C72.2629 267.694 24.564 219.995 24.564 161.156C24.564 102.316 72.2629 54.6172 131.102 54.6172C189.942 54.6172 237.641 102.316 237.641 161.156Z" fill="#28429D" stroke="#28429D" stroke-width="17.2381" stroke-linecap="round" stroke-linejoin="round"/>
<path d="M49.1922 170.749L56.3048 167.406L47.9243 160.606C49.0464 158.765 50.0782 156.924 51.6518 155.083C54.8355 151.334 57.4073 147.548 61.7395 143.871C65.2451 141.115 68.6096 138.222 72.8499 136.294C76.0256 134.664 79.5237 133.357 83.0898 132.118C88.1704 130.743 94.1189 129.4 101.249 128.103C103.907 127.291 106.805 126.769 109.11 125.534L113.497 120.006C116.04 117.879 118.384 115.702 121.518 113.722C124.266 112.491 126.083 111.02 131.407 110.451C133.375 110.059 135.294 110.353 137.184 111.064C138.417 111.692 139.465 112.453 139.606 113.861C139.363 115.566 138.794 117.27 137.763 118.975L132.945 127.089C132.44 128.243 131.562 129.025 131.479 130.601C135.632 131.888 139.784 133.085 143.937 134.823C147.886 136.017 150.964 137.695 154.245 139.26C158.125 140.756 160.622 142.252 163.377 143.748C167.824 146.314 171.418 148.879 175.194 151.444L179.72 155.298C181.732 152.395 183.114 150.083 187.665 146.58C190.658 144.556 193.429 142.454 197.706 140.883C201.127 140.076 204.158 139.001 208.762 139.007C210.548 139.09 213.704 139.12 214.281 140.465L209.438 144.378C207.395 146.038 205.353 148.473 203.31 150.726C201.004 154.27 199.842 156.67 199.025 158.726C198.45 160.904 197.669 163.081 197.993 165.259C198.01 167.646 199.725 170.67 200.901 173.492L206.991 180.93L214.268 187.29C212.987 189.36 213.171 188.795 209.835 190.451C207.28 191.151 204.724 191.052 202.169 190.734L195.83 188.452C193.4 186.695 190.521 185.048 189.059 183.216L182.999 177.118L179.589 172.883C178.268 174.877 176.691 176.724 174.817 178.403C172.197 180.643 169.417 182.483 166.644 184.34L160.123 187.713L152.888 190.903C147.417 193.148 141.88 195.067 136.33 196.921L129.184 199.013C129.055 200.495 129.788 201.546 130.917 202.398L135.958 206.041L140.02 209.625C138.68 210.743 136.758 211.181 134.974 211.78C133.372 212.198 131.244 212.002 129.188 211.89C125.957 210.936 123.304 209.558 121.256 207.736L117.951 204.638L114.836 200.56C112.804 199.675 110.771 199.171 108.738 198.836L95.9245 197.327C89.8774 196.895 83.7563 196.018 77.4733 194.17C72.7072 192.336 68.1476 190.088 63.9329 187.151C60.5048 184.196 57.2593 181.283 54.8468 178.563L49.1922 170.749Z" fill="#C3EAD8" stroke="#C3EAD8" stroke-width="0.278832"/>
<path d="M90.3502 153.85C90.3502 157.478 87.4089 160.42 83.7806 160.42C80.1523 160.42 77.2109 157.478 77.2109 153.85C77.2109 150.222 80.1523 147.28 83.7806 147.28C87.4089 147.28 90.3502 150.222 90.3502 153.85Z" fill="#28429D" stroke="#28429D" stroke-width="0.39242"/>
<path d="M96.2324 192.309L100.06 188.898L104.768 183.043L108.124 176.477C109.066 174.484 109.912 172.079 110.226 169.615L110.803 164.032C110.769 161.595 110.737 159.16 110.24 156.415C109.78 153.579 109.074 150.66 107.905 147.588L104.622 140.657L100.683 134.602L99.5154 132.705L102.327 135.144L106.879 139.87L109.038 142.754L112.136 148.317L113.742 152.84L114.763 156.342L115.347 159.625L115.493 164.075L115.201 168.38L114.18 172.83L112.992 176.701L110.751 180.344L108.854 182.897L106.28 185.747L102.227 188.832L98.1296 191.579L96.2324 192.309Z" fill="#28429D" stroke="#28429D" stroke-width="0.278832"/>
</svg>
