<svg width="263" height="373" viewBox="0 0 263 373" fill="none" xmlns="http://www.w3.org/2000/svg">
<path d="M237.641 155.578C237.641 214.417 189.942 262.116 131.102 262.116C72.2629 262.116 24.564 214.417 24.564 155.578C24.564 96.7381 72.2629 49.0392 131.102 49.0392C189.942 49.0392 237.641 96.7381 237.641 155.578Z" fill="#02A75B" stroke="#02A75B" stroke-width="17.2381" stroke-linecap="round" stroke-linejoin="round"/>
<path d="M58.2603 207.493L62.8566 210.738L67.5401 212.83L73.3128 214.572L78.1924 215.792L85.8602 217.012L90.9141 217.753L95.554 217.862L101.37 217.535L110.432 215.966L117.752 214.747L123.72 213.265L134.394 210.586L140.407 208.821L149.077 205.859L156.004 203.746C158.232 202.999 160.207 202.632 162.212 202.221C164.352 201.726 166.66 201.527 169.031 201.437C172.402 201.386 174.928 201.585 177.962 202.243C179.85 202.653 181.738 203.362 183.626 204.116C185.542 205.134 187.471 206.055 189.333 207.514C191.179 208.646 192.556 210.09 194.082 211.435L199.658 217.186C201.551 219.56 203.755 221.855 205.235 224.331L207.174 226.444C207.391 226.389 207.602 226.291 207.762 225.835C208.43 226.406 208.739 227.037 209.069 227.664C208.43 227.648 207.791 227.715 207.152 227.817L204.93 227.316L200.399 226.553L193.733 226.488L187.089 226.945L178.398 228.514C175.286 229.235 172.034 230.307 168.813 231.302L152.889 236.705C146.209 239.547 139.032 241.539 132.151 244.024L122.108 245.941L112.828 247.596L106.076 248.381L95.0965 248.555L86.383 247.335C84.0014 246.612 81.6197 245.897 79.238 244.721C75.9493 243.385 73.604 241.382 71.0473 239.493C68.2919 236.642 65.3829 233.682 63.9676 230.322L61.6585 225.878L59.7198 219.975L59.1098 216.293L58.8483 211.784L58.6737 210.39L58.2603 207.493Z" fill="#FEFEFE" stroke="#FEFEFE" stroke-width="0.278832" stroke-linecap="round" stroke-linejoin="round"/>
<path d="M70.3255 230.251L69.9813 228.366L69.8682 227.482L70.2451 225.51L71.0642 223.042L71.8036 221.871L73.159 220.886L74.8842 219.961L76.7943 219.53L78.5195 219.469L81.0457 219.961L83.3869 221.024L85.9131 222.488L88.1928 224.521L89.918 227.17L91.7048 230.621L92.2591 233.886L92.1972 236.351L91.0266 239.431C90.7389 239.793 90.4515 240.11 90.164 240.356L89.7837 240.232L88.1923 241.403L86.8367 242.204L82.5238 242.142L79.3815 241.157L76.6705 239.616L74.3292 237.583L72.5424 235.426L71.3718 233.147L70.8175 231.853L70.3255 230.251Z" fill="#02A75B" stroke="#02A75B" stroke-width="0.278832" stroke-linecap="round" stroke-linejoin="round"/>
<path d="M93.9414 231.946L93.5756 230.737C93.4875 230.203 93.1245 229.749 93.3972 229.112L93.425 226.792C93.4585 225.673 94.0037 224.49 94.353 223.583C94.6809 223.028 95.2224 222.502 95.8984 222.064L96.8182 221.165C97.1355 220.84 97.7232 220.678 98.3256 220.524C98.9749 220.355 98.9499 220.226 100.475 220.005L102.614 220.031L104.792 220.437C105.834 220.807 106.876 221.02 107.917 221.652L110.661 223.355L112.571 225.062L114.514 227.493C115.331 228.672 115.994 230.069 116.54 231.249C116.803 232.119 116.892 232.99 117.051 233.861C117.137 235.24 117.12 236.586 116.859 237.85C116.727 239.069 116.219 239.967 115.688 240.844C115.4 241.205 115.157 241.544 114.869 241.79L114.249 242.385L112.832 243.098L110.954 243.747C109.53 244.133 108.107 243.817 106.684 243.838L103.455 242.743C102.547 242.236 101.332 241.896 100.635 241.072C99.9714 240.862 99.183 239.586 98.4025 238.908L96.5068 236.882L95.445 235.191L94.5857 233.461L93.9414 231.946Z" fill="#02A75B" stroke="#02A75B" stroke-width="0.278832" stroke-linecap="round" stroke-linejoin="round"/>
<path d="M118.493 229.684L118.04 228.236L117.905 226.719C117.56 225.465 117.855 224.757 117.866 223.811L118.729 221.604L119.751 220.259C120.174 219.73 120.597 219.174 121.02 218.925C121.72 218.569 122.477 218.101 123.072 217.957L125.069 217.591L127.056 217.486C128.1 217.654 129.189 217.801 130.126 218.023C131.003 218.326 132.052 218.629 132.555 218.932C133.42 219.47 134.499 219.902 135.146 220.549C136.252 221.329 136.929 222.055 137.578 222.778C138.337 223.536 139.017 224.03 139.935 225.319C140.826 227.003 141.941 228.707 142.18 230.337C142.326 231.536 142.586 232.98 142.407 233.472C142.374 234.519 142.027 235.255 141.648 235.958C141.117 237.019 140.594 238.087 139.78 238.865C139.493 239.226 139.096 239.566 138.809 239.811L138.255 240.232L136.729 240.64L135.308 241.311C133.87 241.622 132.432 241.377 130.995 241.249L127.852 240.263L125.141 238.723L122.8 236.69L121.013 234.533L119.843 232.253L119.288 230.96L118.493 229.684Z" fill="#02A75B" stroke="#02A75B" stroke-width="0.278832" stroke-linecap="round" stroke-linejoin="round"/>
<path d="M140.818 221.052C140.514 220.214 140.471 219.323 140.453 218.427L140.402 216.366L140.736 215.331C141.132 214.208 141.529 213.712 141.925 212.95L142.948 211.736L144.303 210.75L146.029 209.826L147.938 209.395L149.664 209.333L152.19 209.826L154.531 210.627L157.079 211.72L159.62 213.492L161.89 215.967C163.074 217.33 163.46 218.249 164.178 219.352C164.662 220.514 165.259 221.686 165.19 222.792C165.36 224.039 165.29 224.885 165.302 225.867C164.942 227.049 164.579 228.121 163.87 229.187C163.582 229.548 163.077 230.236 162.79 230.482L161.756 231.273L160.84 231.856L158.199 232.461C156.744 232.62 155.26 232.65 153.69 232.29L150.221 231.195L147.183 229.503C146.178 229.034 145.659 228.288 145.038 227.6L143.382 225.552L142.19 223.708L141.461 222.436L140.818 221.052Z" fill="#02A75B" stroke="#02A75B" stroke-width="0.278832" stroke-linecap="round" stroke-linejoin="round"/>
<path d="M164.761 215.325L164.287 213.506L164.173 212.447C164.184 211.79 164.207 211.14 164.332 210.541C164.418 209.69 164.96 208.656 165.304 207.702L166.326 206.618L167.856 205.633C168.497 205.354 169.137 205.075 169.777 204.796L171.579 204.691L173.347 204.586L176.091 205.079C176.817 205.419 177.049 205.391 178.193 205.836C179.374 206.552 180.724 207.194 181.416 208.128C182.04 208.381 182.503 208.877 183.021 209.29L185.094 211.329C185.936 212.475 186.421 213.918 186.925 215.346C187.197 216.507 187.527 217.668 187.523 218.829C187.348 219.703 187.307 220.443 187.243 221.207L186.377 222.958C186.089 223.32 185.192 224.291 184.904 224.536L183.98 225.175L183.063 225.518L181.338 225.992L177.918 226.17L174.579 225.381L171.934 223.993L169.375 222.134L166.629 219.324L165.851 218.155L165.318 216.839L164.761 215.325Z" fill="#02A75B" stroke="#02A75B" stroke-width="0.278832" stroke-linecap="round" stroke-linejoin="round"/>
<path d="M93.9234 96.8574L95.895 90.0799L97.497 85.5205L99.8383 80.8379L102.426 76.032L105.753 71.3494L108.464 67.899L110.436 65.6809L113.27 62.6002L117.583 64.9415L122.389 68.3919L128.057 72.7049L132.124 77.0178L135.451 80.4682L138.655 85.0276L141.489 88.9709L143.83 93.0374L145.432 96.9807L146.788 101.294L147.527 105.483L147.774 110.166L147.527 114.479L146.049 118.792L144.447 123.105L141.982 127.171L139.518 130.252L136.314 134.072L133.11 137.276L126.948 141.712C123.868 121.585 121.374 101.458 117.09 81.3308C118.619 100.484 121.424 121.339 123.868 141.712L120.54 140.603L117.706 139.987L114.133 138.385L109.45 135.92L107.232 134.565L105.137 132.963L102.303 130.745L100.085 128.404L97.8667 125.816L95.6486 122.119L93.4305 115.834L92.9374 113.247L92.3213 108.194L92.8143 103.758L93.4304 99.4452L93.9234 96.8574Z" fill="white" stroke="white" stroke-opacity="0.941176" stroke-width="0.278832" stroke-linecap="round" stroke-linejoin="round"/>
<path d="M122.759 159.58L74.7 154.774L85.2976 156.992L95.1557 158.594L102.796 159.58L113.393 161.305L122.019 162.291L119.678 166.111L116.844 169.931L113.27 173.628L109.943 176.339L106.123 178.804L101.81 180.282L97.99 181.022H92.8144L88.255 180.159L83.6956 178.804L77.2878 175.846L70.5103 171.533L65.4579 167.344L61.6379 163.277L57.6946 158.348L55.2301 154.898L53.1353 151.694L56.2159 148.983L61.145 144.67L64.4722 142.205L67.7993 140.11L74.3303 136.906L78.7665 134.811L83.942 133.579L90.2266 132.717L95.4022 132.593L100.208 133.456L104.275 134.442L108.957 137.03L113.147 141.219L117.09 146.395L120.417 151.817L121.896 156.992L122.759 159.58Z" fill="white" stroke="white" stroke-opacity="0.941176" stroke-width="0.278832" stroke-linecap="round" stroke-linejoin="round"/>
<path d="M131.385 157.978L131.878 153.912V150.461L132.617 147.381L133.849 142.821L136.314 137.646L139.518 132.963L144.57 128.28L149.499 125.693L153.319 124.214L158.741 123.475L163.054 122.982L168.599 123.105L173.652 123.475L179.32 124.46L184.742 126.062L189.671 127.911L194.354 129.636L199.283 132.717L198.544 136.044L196.695 140.234L193.861 147.011L190.78 151.94L188.193 155.39L184.619 160.32L181.415 164.016C180.105 165.454 178.688 166.152 176.732 167.59L172.296 170.547L168.353 172.396L164.163 173.751L159.85 174.244L154.675 173.998L149.869 172.519L144.077 169.931L139.025 166.604L134.712 163.154L132.494 160.32L151.964 152.68L161.699 148.859L173.652 144.054L183.263 139.987L195.463 135.295L183.633 139.248L172.912 143.068L164.163 146.148L155.907 148.736L146.419 152.433L140.504 154.405L131.385 157.978Z" fill="white" stroke="white" stroke-opacity="0.941176" stroke-width="0.278832" stroke-linecap="round" stroke-linejoin="round"/>
<path d="M123.991 141.589L126.948 141.712L127.444 144.426L127.688 146.765L127.811 150.215L128.183 154.405L128.92 158.964L131.384 157.732L132.37 160.196L129.043 161.675L129.413 165.002L129.536 167.59V170.301V173.135L129.29 176.709L128.92 179.666L128.55 182.747L127.811 186.321L126.578 190.51L125.346 193.837L123.744 197.041L121.526 200.985L119.801 203.942L117.706 203.079L119.308 200.861L121.28 197.288L123.375 192.605L124.73 188.539L125.716 185.581L126.332 182.624L126.948 179.666C127.304 176.831 127.533 173.616 127.564 169.808L127.441 164.633L126.825 162.661L122.142 162.414L122.882 159.703L126.455 160.073L125.593 155.883L125.1 150.954L124.981 147.88L123.991 141.589Z" fill="white" stroke="white" stroke-opacity="0.941176" stroke-width="0.278832" stroke-linecap="round" stroke-linejoin="round"/>
</svg>
