<svg width="263" height="373" viewBox="0 0 263 373" fill="none" xmlns="http://www.w3.org/2000/svg">
<path d="M237.641 144.822C237.641 203.661 189.942 251.36 131.102 251.36C72.2629 251.36 24.564 203.661 24.564 144.822C24.564 85.982 72.2629 38.2831 131.102 38.2831C189.942 38.2831 237.641 85.982 237.641 144.822Z" fill="#9A8E6C" stroke="#9A8E6C" stroke-width="17.2381" stroke-linecap="round" stroke-linejoin="round"/>
<path d="M146.547 132.661L148.1 130.591L150.861 128.002L154.657 125.242L160.523 120.756L165.441 117.564L169.841 114.889L174.413 112.301L180.625 109.54L187.095 107.383L190.201 106.952L192.444 107.125L193.565 107.901C183.564 118.953 173.337 129.948 162.421 140.771C162.817 141.553 162.258 143.171 164.319 142.496C174.858 131.769 185.181 120.899 195.032 109.713L195.291 112.646C195.193 114.279 195.014 116.075 194.687 118.167L193.307 125.241L190.718 131.799L184.162 145.775L180.366 152.504L177.778 156.645L175.017 159.837L171.221 163.202L166.735 166.48L160.264 168.809C157.993 169.492 155.721 170.052 153.449 169.586L148.273 168.033L144.304 165.79C142.623 164.135 141.294 162.128 139.818 160.268C138.729 157.739 138.204 155.436 138.265 153.367L138.61 147.155C139.732 143.703 141.686 139.585 142.924 137.838L146.547 132.661Z" fill="white" stroke="white" stroke-width="0.278832" stroke-linecap="round" stroke-linejoin="round"/>
<path d="M107.953 144.902L106.622 146.656L104.274 148.835L101.058 151.145L96.084 154.904L91.9243 157.566L88.2054 159.791L84.3439 161.94L79.1109 164.209L73.6714 165.954L71.0705 166.272L69.2002 166.086L68.2766 165.399C76.8127 156.064 85.5356 146.781 94.8316 137.657C94.5137 136.978 95.0078 135.596 93.2753 136.141C84.2959 145.188 75.4945 154.363 67.0819 163.816L66.9141 161.289C67.0228 159.886 67.2024 158.344 67.5101 156.55L68.7803 150.489L71.0508 144.894L76.7587 132.984L80.0405 127.261L82.2707 123.744L84.6294 121.045L87.8553 118.216L91.6562 115.472L97.0984 113.579C99.007 113.031 100.914 112.587 102.803 113.027L107.1 114.45L110.377 116.447C111.753 117.899 112.83 119.647 114.031 121.272C114.899 123.466 115.299 125.456 115.214 127.234L114.822 132.571C113.828 135.521 112.128 139.03 111.065 140.511L107.953 144.902Z" fill="white" stroke="white" stroke-width="0.236357" stroke-linecap="round" stroke-linejoin="round"/>
<path d="M124.018 97.0367L123.236 95.2675L122.497 92.4906L121.956 88.941L120.99 83.3816L120.52 78.9128L120.207 74.9758L119.996 70.9487L120.158 65.7327L120.757 60.5413L121.404 58.253L122.16 56.7636L122.949 56.2516C126.624 66.8769 130.2 77.6384 133.472 88.8175C134.054 88.8063 134.855 89.7386 135.053 88.0894C131.728 77.2029 128.254 66.4168 124.455 55.8503L126.279 56.6603C127.224 57.2779 128.242 58.0067 129.393 58.9375L133.208 62.2738L136.363 66.2696L142.783 75.5035L145.689 80.3904L147.403 83.5717L148.502 86.5523L149.403 90.3052L150.051 94.5052L149.555 99.7548C149.301 101.552 148.973 103.309 148.034 104.719L145.602 107.767L143.109 109.749C141.634 110.351 140.051 110.592 138.513 110.984C136.688 110.883 135.163 110.468 133.947 109.729L130.346 107.398C128.615 105.46 126.729 102.725 126.049 101.281L124.018 97.0367Z" fill="white" stroke="white" stroke-width="0.198992" stroke-linecap="round" stroke-linejoin="round"/>
<path d="M141.625 50.3628L140.461 49.736L138.892 48.4741L137.103 46.6313L134.236 43.8127L132.094 41.3735L130.262 39.1662L128.445 36.8467L126.324 33.5936L124.445 30.1075L123.82 28.3527L123.594 27.0199L123.796 26.2601C130.248 30.6053 136.705 35.0894 143.176 39.9994C143.482 39.6626 144.302 39.7702 143.709 38.6581C137.333 33.9555 130.92 29.3982 124.428 25.159L125.741 24.6116C126.505 24.4476 127.354 24.3098 128.361 24.2178L131.802 24.0671L135.171 24.6919L142.494 26.6306L146.107 27.9373L148.366 28.8885L150.212 30.0687L152.279 31.83L154.401 34.006L156.359 37.4686C156.984 38.7026 157.554 39.9531 157.651 41.3425L157.648 44.5741L157.161 47.1941C156.632 48.3992 155.891 49.4462 155.239 50.5594C154.226 51.5371 153.239 52.1547 152.28 52.3989L149.378 53.0369C147.637 52.849 145.476 52.2646 144.503 51.7779L141.625 50.3628Z" fill="white" stroke="white" stroke-width="0.149341" stroke-linecap="round" stroke-linejoin="round"/>
<path d="M123.64 217.038L122.4 215.408L121.07 212.785L119.878 209.379L117.861 204.06L116.624 199.744L115.663 195.927L114.816 192.009L114.269 186.876L114.274 181.709L114.759 179.381L115.496 177.82L116.415 177.213C122.573 187.136 128.626 197.204 134.356 207.723C135.087 207.636 136.23 208.441 136.242 206.799C130.486 196.574 124.559 186.467 118.254 176.619L120.666 177.17C121.945 177.649 123.331 178.227 124.915 178.986L130.198 181.747L134.744 185.242L144.158 193.435L148.52 197.836L151.137 200.725L152.95 203.499L154.624 207.057L156.045 211.087L156.178 216.297C156.116 218.092 155.958 219.857 154.978 221.364L152.356 224.675L149.504 226.95C147.734 227.736 145.776 228.183 143.896 228.772C141.585 228.916 139.605 228.713 137.968 228.151L133.099 226.347C130.64 224.679 127.872 222.249 126.807 220.926L123.64 217.038Z" fill="white" stroke="white" stroke-width="0.222724" stroke-linecap="round" stroke-linejoin="round"/>
</svg>
